<?xml version="1.0" encoding="UTF-8" standalone="no"?>
<!DOCTYPE svg PUBLIC "-//W3C//DTD SVG 1.1//EN" "http://www.w3.org/Graphics/SVG/1.1/DTD/svg11.dtd">
<!-- Created with Linearity Curve (http://linearity.io/curve) -->
<svg height="2868.0px" stroke-miterlimit="10" style="fill-rule:nonzero;clip-rule:evenodd;stroke-linecap:round;stroke-linejoin:round;" version="1.1" viewBox="0 0 1320 2868" width="1320.0px" xml:space="preserve" xmlns="http://www.w3.org/2000/svg" xmlns:xlink="http://www.w3.org/1999/xlink">
<defs/>
<g id="图层-1">
<g opacity="1">
<path d="M415.838 1669.31C405.684 1669.48 395.168 1673.49 387.845 1680.5C384.541 1683.66 381.692 1687.62 380.556 1692.12C378.241 1701.27 385.868 1709 392.284 1714.29C393.174 1715.03 394.353 1715.96 395.272 1716.66C396.78 1717.81 398.323 1718.91 399.888 1719.97C401.875 1721.33 403.9 1722.62 405.953 1723.87C409.235 1725.87 412.539 1728.15 416.329 1729.03C417.883 1729.39 419.408 1729.74 420.923 1730.19C419.989 1731.3 418.502 1732.15 417.38 1732.81C413.568 1735.03 409.277 1736.5 405.008 1737.56C402.755 1738.11 400.474 1738.55 398.173 1738.86C395.843 1739.18 393.459 1739.42 391.104 1739.42C381.803 1739.38 370.414 1736.09 367.074 1726.36C366.342 1724.23 366.093 1722.02 366.054 1719.77C365.837 1719.09 364.805 1718.8 363.747 1719.14C362.69 1719.47 362.008 1720.3 362.225 1720.98C362.263 1723.15 362.483 1725.28 363.094 1727.37C367.043 1740.86 383.163 1743.01 395.111 1742.7C397.581 1742.64 400.046 1742.44 402.494 1742.1C405.475 1741.7 408.437 1741.11 411.335 1740.29C416.014 1738.98 420.766 1737.12 424.634 1734.1C426.201 1732.88 427.785 1731.37 428.713 1729.59C429.061 1728.92 429.28 1728.39 429.352 1727.63C429.673 1724.21 425.168 1723.15 422.729 1722.34C422.082 1722.13 421.43 1721.92 420.8 1721.65C419.972 1721.31 419.37 1720.83 418.638 1720.29C412.058 1715.43 405.535 1710.14 400.406 1703.71C398.097 1700.82 395.645 1697.34 395.114 1693.56C394.912 1692.13 394.997 1690.5 395.696 1689.2C397.042 1686.7 401.476 1685.31 404.024 1684.77C409.56 1683.6 416.986 1684.26 419.65 1690.07C420.222 1691.32 420.471 1692.64 420.612 1694C421.912 1697.42 427.231 1698.57 432.493 1696.57C437.755 1694.57 440.968 1690.18 439.669 1686.76C439.359 1684.69 438.861 1682.67 437.986 1680.75C434.412 1672.94 426.047 1669.6 417.864 1669.32C417.191 1669.3 416.515 1669.29 415.838 1669.31Z" fill="#000000" stroke="none"/>
</g>
<g opacity="1">
<path d="M447.735 1629.3C447.133 1629.33 446.651 1629.61 446.557 1630.03C442.959 1635.21 439.438 1640.43 436.042 1645.74C433.726 1649.36 431.555 1653.08 429.221 1656.69C425.579 1662.33 421.902 1667.93 418.421 1673.67C411.629 1684.87 405.377 1696.39 399.673 1708.18C396.924 1713.86 394.15 1719.58 391.791 1725.44C390.738 1728.05 389.895 1730.74 388.887 1733.37C387.464 1737.09 386.076 1740.79 384.923 1744.61C382.057 1754.08 380.067 1763.77 378.616 1773.55C379.395 1776.97 384.291 1778.77 389.551 1777.57C394.811 1776.37 398.442 1772.63 397.663 1769.21C398.643 1759.62 400.261 1750.16 402.231 1740.73C402.957 1737.25 403.54 1733.72 404.391 1730.27C405.012 1727.75 405.846 1725.29 406.494 1722.77C410.692 1706.5 416.498 1690.82 423.513 1675.55C426.367 1669.34 429.329 1663.13 432.629 1657.14C434.421 1653.89 436.467 1650.76 438.455 1647.63C442.084 1641.91 445.856 1636.29 449.722 1630.73C449.847 1630.16 449.24 1629.55 448.366 1629.35C448.148 1629.31 447.936 1629.29 447.735 1629.3Z" fill="#000000" stroke="none"/>
</g>
<g opacity="1">
<path d="M427.943 1638.73C413.614 1638.8 399.582 1644.33 387.977 1652.73C367.696 1667.41 353.787 1690.57 350.785 1715.43C350.009 1721.86 349.942 1728.32 350.958 1734.73C352.858 1746.71 358.397 1757.8 366.66 1766.67C369.401 1769.61 372.422 1772.22 375.574 1774.71C376.051 1775.27 377.14 1775.13 378.004 1774.39C378.868 1773.66 379.18 1772.61 378.703 1772.05C372.763 1767.37 367.447 1762.03 363.318 1755.66C360.909 1751.94 358.94 1747.94 357.451 1743.77C354.136 1734.49 353.225 1724.33 354.591 1714.57C355.239 1709.94 356.501 1705.35 358.05 1700.95C362.263 1688.95 369.161 1677.92 377.956 1668.75C391.604 1654.52 411.415 1643.83 431.562 1648.82C435.511 1649.79 439.383 1651.29 442.824 1653.48C454.463 1660.88 457.162 1674.85 455.362 1687.72C454.498 1693.89 452.537 1699.86 450.189 1705.62C445.639 1716.78 439.129 1727.39 430.798 1736.13C425.542 1741.65 419.388 1746.79 411.989 1749.04C409.354 1749.1 407.284 1752.43 407.367 1756.48C407.451 1760.53 409.658 1763.77 412.293 1763.72C424.047 1759.88 434.208 1752.45 442.629 1743.5C455.838 1729.47 466.153 1711.04 469.579 1691.97C471.947 1678.79 471.883 1664.82 463.382 1653.72C461.928 1651.82 460.275 1650.09 458.447 1648.55C456.101 1646.57 453.489 1644.93 450.722 1643.6C446.671 1641.67 442.298 1640.38 437.885 1639.58C434.574 1638.98 431.249 1638.71 427.943 1638.73Z" fill="#000000" stroke="none"/>
</g>
<g opacity="1">
<path d="M544.326 1635.81C519.395 1635.97 492.193 1642.43 477.01 1663.68C476.76 1664.81 477.961 1666.03 479.689 1666.41C481.418 1666.8 483.02 1666.2 483.269 1665.07C489.2 1656.32 497.854 1650.26 507.361 1645.91C514.223 1642.76 521.534 1640.63 528.938 1639.21C535.42 1637.97 542.094 1637.15 548.702 1637.12C555.077 1637.08 561.478 1637.81 567.731 1639C567.953 1639.14 568.316 1638.99 568.542 1638.65C568.768 1638.3 568.772 1637.91 568.551 1637.76C562.164 1636.55 555.767 1636.03 549.278 1635.86C547.64 1635.81 545.988 1635.8 544.326 1635.81Z" fill="#000000" stroke="none"/>
</g>
<g opacity="1">
<path d="M573.944 1641.95C573.7 1641.98 573.512 1642.11 573.486 1642.28C566.385 1653.8 555.005 1660.32 542.332 1664.16C532.104 1667.27 521.433 1668.5 510.77 1668.57C499.857 1668.64 488.915 1667.71 478.253 1665.3C477.15 1664.55 475.309 1665.31 474.142 1667.01C472.976 1668.7 472.924 1670.7 474.028 1671.45C488.767 1674.4 503.893 1674.48 518.738 1672.22C527.578 1670.88 536.33 1668.8 544.663 1665.52C556.544 1660.85 567.979 1653.52 574.795 1642.48C574.829 1642.24 574.563 1642.01 574.202 1641.95C574.112 1641.94 574.026 1641.94 573.944 1641.95Z" fill="#000000" stroke="none"/>
</g>
<g opacity="1">
<path d="M482.2 1669.6C481.598 1669.59 480.947 1669.69 480.294 1669.92C478.203 1670.64 476.887 1672.32 477.355 1673.68C477.918 1678.15 478.933 1682.52 480.219 1686.84C480.796 1688.78 481.669 1690.6 482.295 1692.51C482.836 1694.17 483.049 1695.99 483.391 1697.69C483.503 1697.96 483.93 1698.04 484.344 1697.87C484.758 1697.69 485.003 1697.34 484.89 1697.07C484.546 1695.35 484.038 1693.59 483.869 1691.85C483.702 1690.12 483.674 1688.32 483.703 1686.6C483.745 1684.11 484.308 1681.71 484.55 1679.25C484.818 1676.52 484.95 1673.83 484.926 1671.08C484.605 1670.14 483.523 1669.61 482.2 1669.6Z" fill="#000000" stroke="none"/>
</g>
<g opacity="1">
<path d="M572.049 1648.75C571.565 1648.74 571.051 1648.79 570.529 1648.92C568.441 1649.44 567.022 1650.96 567.36 1652.32C567.275 1654.31 567.136 1656.33 567.299 1658.33C567.741 1663.72 568.825 1669.12 568.891 1674.54C568.915 1676.54 568.573 1678.58 568.384 1680.57C568.451 1680.84 568.844 1680.97 569.262 1680.87C569.679 1680.77 569.964 1680.46 569.897 1680.19C570.088 1678.18 570.185 1676.13 570.471 1674.12C570.711 1672.44 571.129 1670.77 571.441 1669.11C572.606 1662.87 574.038 1656.72 574.921 1650.44C574.668 1649.42 573.498 1648.78 572.049 1648.75Z" fill="#000000" stroke="none"/>
</g>
<g opacity="1">
<path d="M582.073 1679.82C575.948 1682.12 569.647 1684.15 563.234 1685.5C548.148 1688.69 532.642 1689.32 517.276 1689.41C507.364 1689.47 497.446 1689.35 487.532 1689.23C486.403 1688.74 484.862 1689.74 484.094 1691.48C483.326 1693.21 483.619 1695.03 484.748 1695.53C511.071 1695.17 537.492 1693.22 563.089 1686.74C569.567 1685.09 575.944 1683.3 582.209 1680.94C582.411 1680.92 582.542 1680.64 582.504 1680.33C582.466 1680.02 582.275 1679.79 582.073 1679.82Z" fill="#000000" stroke="none"/>
</g>
<g opacity="1">
<path d="M493.575 1674.22C492.229 1674.23 491.136 1674.84 490.957 1675.76C489.779 1678.14 489.773 1680.58 488.845 1682.98C488.511 1683.84 488.012 1684.49 487.504 1685.26C487.459 1685.49 487.709 1685.73 488.061 1685.79C488.412 1685.86 488.733 1685.73 488.777 1685.5C489.36 1684.63 489.691 1684.05 490.435 1683.28C492.62 1681.04 495.287 1679.4 497.324 1676.99C497.545 1675.85 496.298 1674.65 494.54 1674.31C494.21 1674.25 493.886 1674.22 493.575 1674.22Z" fill="#000000" stroke="none"/>
</g>
<g opacity="1">
<path d="M505.576 1673.22C504.23 1673.23 503.137 1673.84 502.958 1674.76C501.917 1676.54 500.948 1678.33 500.139 1680.22C498.897 1683.12 498.021 1686.23 496.526 1689.01C495.924 1690.13 495.161 1691.2 494.489 1692.28C494.453 1692.51 494.715 1692.75 495.075 1692.8C495.435 1692.86 495.756 1692.71 495.792 1692.48C496.465 1691.4 497.091 1690.25 497.829 1689.21C499.924 1686.27 502.579 1683.8 505.031 1681.18C506.568 1679.53 507.972 1677.8 509.323 1675.99C509.544 1674.85 508.298 1673.65 506.54 1673.31C506.211 1673.25 505.887 1673.22 505.576 1673.22Z" fill="#000000" stroke="none"/>
</g>
<g opacity="1">
<path d="M517.576 1671.22C516.23 1671.23 515.137 1671.84 514.957 1672.76C513.132 1675.84 511.63 1678.99 510.28 1682.3C509.454 1684.32 508.781 1686.46 507.798 1688.41C507.126 1689.74 506.245 1691.01 505.48 1692.29C505.449 1692.53 505.72 1692.76 506.085 1692.81C506.449 1692.86 506.77 1692.7 506.801 1692.47C507.567 1691.18 508.274 1689.81 509.125 1688.58C511.857 1684.64 515.307 1681.32 518.438 1677.73C519.469 1676.54 520.388 1675.26 521.323 1673.99C521.544 1672.85 520.298 1671.65 518.54 1671.31C518.211 1671.25 517.887 1671.22 517.576 1671.22Z" fill="#000000" stroke="none"/>
</g>
<g opacity="1">
<path d="M527.525 1672.25C526.368 1672.21 525.41 1672.67 525.166 1673.48C523.632 1675.68 522.254 1677.91 521.002 1680.28C520.555 1681.12 520.044 1681.95 519.682 1682.83C518.929 1684.68 518.769 1686.65 518.126 1688.51C517.671 1689.83 517 1691.11 516.436 1692.38C516.436 1692.63 516.751 1692.84 517.141 1692.84C517.53 1692.84 517.845 1692.63 517.845 1692.38C519.159 1689.41 520.467 1686.53 522.446 1683.92C523.486 1682.55 524.921 1681.55 526.184 1680.41C527.947 1678.81 529.558 1677.08 531.115 1675.28C531.439 1674.22 530.371 1672.95 528.729 1672.45C528.318 1672.32 527.91 1672.26 527.525 1672.25Z" fill="#000000" stroke="none"/>
</g>
<g opacity="1">
<path d="M540.652 1667.23C539.324 1667.2 538.227 1667.76 538.021 1668.67C536.537 1671.05 535.23 1673.45 534.03 1675.97C533.538 1677.01 532.987 1678.02 532.636 1679.11C532.077 1680.86 532.159 1682.7 531.708 1684.46C531.363 1685.8 530.848 1687.13 530.412 1688.44C530.434 1688.7 530.778 1688.89 531.181 1688.85C531.584 1688.82 531.892 1688.58 531.87 1688.32C532.898 1685.22 533.864 1681.9 535.838 1679.23C536.935 1677.75 538.474 1676.68 539.71 1675.34C541.285 1673.62 542.822 1671.93 544.26 1670.09C544.514 1668.97 543.324 1667.74 541.601 1667.35C541.277 1667.28 540.959 1667.24 540.652 1667.23Z" fill="#000000" stroke="none"/>
</g>
<g opacity="1">
<path d="M554.408 1663.24C553.229 1663.26 552.277 1663.78 552.068 1664.61C549.684 1668.25 547.685 1672.11 545.83 1676.05C545.197 1677.4 544.681 1678.8 544.026 1680.14C543.32 1681.58 542.337 1682.92 541.489 1684.28C541.453 1684.51 541.716 1684.75 542.075 1684.8C542.435 1684.86 542.755 1684.71 542.791 1684.48C543.648 1683.11 544.432 1681.64 545.406 1680.35C546.388 1679.04 547.471 1677.78 548.544 1676.56C550.033 1674.87 551.744 1673.4 553.289 1671.77C555.004 1669.95 556.644 1668.11 558.213 1666.15C558.491 1665.05 557.341 1663.81 555.644 1663.38C555.22 1663.28 554.801 1663.23 554.408 1663.24Z" fill="#000000" stroke="none"/>
</g>
<g opacity="1">
<path d="M559.98 1664.16C558.265 1664.13 556.854 1664.95 556.758 1666.09C555.015 1669.7 553.592 1673.39 552.398 1677.21C551.721 1679.37 551.268 1681.64 550.499 1683.78C549.935 1685.34 549.126 1686.86 548.438 1688.37C548.436 1688.63 548.749 1688.83 549.137 1688.84C549.524 1688.84 549.84 1688.64 549.842 1688.39C550.535 1686.86 551.146 1685.26 551.94 1683.78C552.957 1681.9 554.189 1680.04 555.363 1678.26C556.517 1676.51 557.913 1674.96 559.122 1673.25C560.656 1671.09 562.141 1668.94 563.522 1666.67C563.625 1665.45 562.195 1664.34 560.327 1664.18C560.21 1664.17 560.094 1664.16 559.98 1664.16Z" fill="#000000" stroke="none"/>
</g>
<g opacity="1">
<path d="M564.89 1669.13C563.146 1669.17 561.744 1670.06 561.691 1671.22C561.407 1672.04 561.15 1672.89 561.033 1673.75C560.806 1675.42 560.931 1677.19 560.529 1678.84C560.303 1679.76 559.872 1680.51 559.451 1681.35C559.439 1681.6 559.739 1681.81 560.12 1681.83C560.501 1681.85 560.819 1681.66 560.83 1681.41C561.319 1680.43 561.58 1679.8 562.252 1678.92C564.23 1676.32 566.786 1674.29 568.59 1671.54C568.647 1670.3 567.148 1669.23 565.243 1669.14C565.124 1669.13 565.007 1669.13 564.89 1669.13Z" fill="#000000" stroke="none"/>
</g>
<g opacity="1">
<path d="M482.25 1695.22C481.522 1695.2 480.91 1695.45 480.623 1695.96C478.825 1697.94 477.026 1699.92 475.418 1702.05C474.751 1702.94 473.91 1704.06 474.026 1705.25C474.203 1707.05 476.275 1708.62 477.405 1709.87C478.722 1711.33 479.54 1713.04 480.422 1714.79C480.568 1715.04 481.009 1715.07 481.405 1714.85C481.802 1714.62 482.004 1714.23 481.858 1713.97C481.263 1712.8 480.594 1711.65 480.006 1710.48C479.277 1709.01 478.802 1707.3 478.323 1705.74C478.185 1705.28 477.86 1704.46 478.171 1704.03C478.21 1703.97 478.264 1704.15 478.331 1704.15C478.42 1704.14 478.544 1704.06 478.614 1704.02C479.167 1703.7 479.755 1703.39 480.268 1703.02C482.13 1701.66 483.937 1700.35 485.658 1698.8C486.167 1697.89 485.452 1696.53 484.062 1695.74C483.453 1695.4 482.817 1695.23 482.25 1695.22Z" fill="#000000" stroke="none"/>
</g>
<g opacity="1">
<path d="M572.526 1678.26C571.674 1678.26 570.701 1678.52 569.779 1679.07C567.814 1680.22 566.83 1682.2 567.582 1683.47C569.429 1685.75 571.986 1686.68 574.002 1688.65C574.688 1689.33 574.971 1689.97 575.429 1690.8C575.579 1691.05 576.019 1691.07 576.413 1690.84C576.806 1690.61 577.003 1690.22 576.852 1689.96C576.389 1689.13 575.994 1688.55 575.779 1687.61C575.15 1684.83 575.646 1682.02 574.699 1679.29C574.3 1678.61 573.491 1678.26 572.526 1678.26Z" fill="#000000" stroke="none"/>
</g>
<g opacity="1">
<path d="M578.996 1693.93C578.877 1693.92 578.772 1693.95 578.709 1694.03C573.348 1698.52 567.539 1702.62 561.235 1705.69C537.497 1717.24 509.482 1718.14 484.472 1710.36C483.388 1709.52 481.465 1710.2 480.178 1711.87C478.89 1713.53 478.725 1715.56 479.808 1716.4C485.429 1717.99 491.133 1719.19 496.945 1719.81C506.251 1720.81 515.702 1720.38 524.936 1718.95C544.842 1715.85 564.079 1707.7 579.57 1694.73C579.696 1694.57 579.606 1694.29 579.368 1694.1C579.25 1694 579.115 1693.95 578.996 1693.93Z" fill="#000000" stroke="none"/>
</g>
<g opacity="1">
<path d="M581.032 1706.95C580.803 1706.94 580.612 1707.03 580.559 1707.18C575.404 1713.52 569.684 1719.5 562.796 1723.97C547.376 1733.99 528.448 1733.91 510.786 1735.25C507.747 1735.48 504.781 1736.21 501.844 1736.99C499.632 1737.58 497.434 1738.27 495.142 1738.47C492.586 1738.69 489.651 1738.22 488.021 1736.02C486.498 1733.95 486.723 1731.04 487.062 1728.65C487.649 1724.51 488.781 1720.47 488.931 1716.28C488.536 1714.92 486.517 1714.31 484.424 1714.92C482.331 1715.53 480.955 1717.12 481.35 1718.48C481.291 1723.55 479.561 1728.44 479.648 1733.52C479.689 1735.92 480.191 1738.41 481.753 1740.31C484.349 1743.47 488.683 1744.23 492.545 1743.81C498.391 1743.17 503.704 1740.33 509.493 1739.51C524.979 1737.34 541.017 1736.43 555.333 1729.52C565.857 1724.45 574.404 1716.57 581.722 1707.58C581.793 1707.37 581.589 1707.11 581.268 1707C581.188 1706.97 581.108 1706.96 581.032 1706.95Z" fill="#000000" stroke="none"/>
</g>
<g opacity="1">
<path d="M582.547 1697.91C582.301 1697.91 582.049 1697.93 581.793 1697.97C579.744 1698.26 578.238 1699.58 578.43 1700.91C578.318 1701.88 578.241 1702.86 578.317 1703.82C578.465 1705.71 579.01 1707.61 578.964 1709.51C578.939 1710.57 578.653 1711.47 578.398 1712.49C578.437 1712.75 578.8 1712.92 579.21 1712.86C579.62 1712.8 579.921 1712.54 579.883 1712.27C580.174 1711.11 580.306 1710.35 580.817 1709.25C582.318 1706 584.574 1703.21 585.851 1699.84C585.682 1698.68 584.271 1697.89 582.547 1697.91Z" fill="#000000" stroke="none"/>
</g>
<g opacity="1">
<path d="M562.224 1731.77C557.576 1732.8 552.925 1733.87 548.239 1734.71C541.976 1735.83 535.548 1736.48 529.199 1736.86C516.467 1737.62 503.641 1736.53 491.101 1734.28C489.988 1733.57 488.207 1734.39 487.124 1736.11C486.04 1737.82 486.065 1739.78 487.179 1740.48C495.208 1741.64 503.281 1742.15 511.389 1741.7C520.106 1741.21 528.812 1739.93 537.37 1738.24C540.935 1737.53 544.465 1736.68 548.021 1735.94C552.702 1734.96 557.386 1734.02 562.057 1732.99C562.274 1733.02 562.489 1732.77 562.535 1732.43C562.581 1732.1 562.442 1731.8 562.224 1731.77Z" fill="#000000" stroke="none"/>
</g>
<g opacity="1">
<path d="M580.628 1704.96C580.386 1704.96 580.137 1704.97 579.884 1704.99C577.856 1705.21 576.327 1706.46 576.469 1707.78C575.904 1710.26 575.568 1712.67 575.411 1715.2C575.366 1715.94 575.263 1716.69 575.305 1717.43C575.408 1719.27 576.158 1720.95 576.353 1722.75C576.489 1724.01 576.381 1725.35 576.382 1726.61C576.466 1726.88 576.873 1727 577.292 1726.87C577.71 1726.74 577.982 1726.42 577.899 1726.15C577.897 1724.87 577.777 1723.54 577.869 1722.27C577.983 1720.7 578.368 1718.88 578.808 1717.39C579.279 1715.8 580.299 1714.45 581.094 1713.02C582.172 1711.08 583.036 1709.06 583.812 1706.98C583.688 1705.83 582.325 1705 580.628 1704.96Z" fill="#000000" stroke="none"/>
</g>
<g opacity="1">
<path d="M583.064 1724.82C581.39 1725.46 579.717 1726.2 578.012 1726.76C573.973 1728.07 569.745 1728.89 565.639 1729.98C562.912 1730.71 560.246 1731.67 557.599 1732.65C556.619 1732.84 556.068 1734.22 556.366 1735.73C556.665 1737.24 557.701 1738.3 558.681 1738.11C561.327 1736.89 563.963 1735.62 566.484 1734.16C570.297 1731.94 574.128 1729.67 578.165 1727.88C579.805 1727.15 581.542 1726.58 583.216 1725.94C583.417 1725.91 583.546 1725.64 583.504 1725.33C583.462 1725.02 583.265 1724.79 583.064 1724.82Z" fill="#000000" stroke="none"/>
</g>
<g opacity="1">
<path d="M501.719 1716.18C500.181 1716.21 498.939 1716.95 498.817 1717.99C497.574 1720.36 496.427 1722.75 495.397 1725.21C493.794 1729.05 492.681 1733.12 490.886 1736.87C490.162 1738.39 489.266 1739.85 488.463 1741.32C488.443 1741.57 488.73 1741.79 489.104 1741.82C489.478 1741.85 489.797 1741.68 489.817 1741.44C490.62 1739.96 491.365 1738.42 492.24 1736.98C494.666 1733.01 497.722 1729.51 500.529 1725.83C502.274 1723.54 503.905 1721.19 505.464 1718.77C505.604 1717.58 504.23 1716.43 502.394 1716.22C502.165 1716.19 501.939 1716.18 501.719 1716.18Z" fill="#000000" stroke="none"/>
</g>
<g opacity="1">
<path d="M509.174 1716.1C507.241 1716.08 505.659 1717.07 505.64 1718.33C504.083 1722.22 502.923 1726.23 501.932 1730.3C501.496 1732.09 501.337 1733.93 500.938 1735.73C500.584 1737.32 499.927 1738.89 499.412 1740.44C499.434 1740.7 499.778 1740.89 500.181 1740.85C500.583 1740.82 500.891 1740.58 500.869 1740.32C501.389 1738.75 501.808 1737.1 502.46 1735.59C503.119 1734.06 503.918 1732.54 504.725 1731.1C505.882 1729.02 507.373 1727.19 508.667 1725.21C510.107 1723.01 511.417 1720.76 512.64 1718.43C512.659 1717.18 511.107 1716.13 509.174 1716.1Z" fill="#000000" stroke="none"/>
</g>
<g opacity="1">
<path d="M521.754 1714.19C520.225 1714.19 518.981 1714.91 518.844 1715.94C517.031 1719.33 515.562 1722.79 514.237 1726.39C513.425 1728.6 512.763 1730.92 511.784 1733.05C511.113 1734.51 510.23 1735.91 509.463 1737.32C509.443 1737.57 509.73 1737.79 510.104 1737.82C510.478 1737.85 510.797 1737.68 510.817 1737.44C511.585 1736.02 512.288 1734.52 513.143 1733.16C515.885 1728.8 519.39 1725.02 522.542 1720.99C523.582 1719.65 524.501 1718.22 525.437 1716.82C525.594 1715.63 524.245 1714.48 522.424 1714.24C522.197 1714.21 521.972 1714.19 521.754 1714.19Z" fill="#000000" stroke="none"/>
</g>
<g opacity="1">
<path d="M529.647 1717.23C528.318 1717.2 527.222 1717.77 527.017 1718.68C525.593 1721.29 525.295 1724.06 524.11 1726.7C523.681 1727.66 523.114 1728.38 522.516 1729.24C522.465 1729.46 522.704 1729.71 523.049 1729.79C523.394 1729.86 523.715 1729.74 523.765 1729.52C524.439 1728.56 524.839 1727.9 525.67 1727.06C528.089 1724.59 530.992 1722.71 533.264 1720.08C533.516 1718.96 532.322 1717.74 530.597 1717.35C530.273 1717.28 529.954 1717.24 529.647 1717.23Z" fill="#000000" stroke="none"/>
</g>
<g opacity="1">
<path d="M542.979 1714.16C541.263 1714.13 539.853 1714.96 539.757 1716.09C538.656 1718.37 537.629 1720.66 536.773 1723.03C535.438 1726.74 534.428 1730.64 532.714 1734.2C532.038 1735.6 531.21 1736.96 530.464 1738.32C530.443 1738.57 530.73 1738.79 531.103 1738.82C531.477 1738.85 531.797 1738.68 531.817 1738.44C532.563 1737.07 533.256 1735.64 534.067 1734.31C536.392 1730.5 539.366 1727.06 542.008 1723.48C543.628 1721.28 545.106 1719 546.524 1716.66C546.626 1715.45 545.194 1714.34 543.326 1714.18C543.209 1714.17 543.093 1714.17 542.979 1714.16Z" fill="#000000" stroke="none"/>
</g>
<g opacity="1">
<path d="M551.719 1715.18C550.18 1715.21 548.939 1715.95 548.817 1716.99C548.363 1717.99 547.935 1719 547.637 1720.06C547.058 1722.1 546.803 1724.28 546.06 1726.28C545.644 1727.4 545.074 1728.27 544.475 1729.3C544.447 1729.54 544.723 1729.77 545.09 1729.81C545.457 1729.85 545.777 1729.7 545.805 1729.46C546.477 1728.31 546.876 1727.53 547.72 1726.48C550.169 1723.44 553.182 1720.96 555.464 1717.77C555.604 1716.58 554.23 1715.43 552.394 1715.22C552.164 1715.19 551.938 1715.18 551.719 1715.18Z" fill="#000000" stroke="none"/>
</g>
<g opacity="1">
<path d="M560.89 1712.13C559.146 1712.17 557.745 1713.06 557.691 1714.22C557.407 1715.04 557.15 1715.89 557.033 1716.75C556.806 1718.42 556.931 1720.19 556.529 1721.84C556.303 1722.76 555.872 1723.51 555.45 1724.35C555.439 1724.6 555.739 1724.81 556.12 1724.83C556.501 1724.85 556.819 1724.66 556.83 1724.41C557.319 1723.43 557.58 1722.8 558.252 1721.92C560.23 1719.32 562.786 1717.29 564.59 1714.54C564.647 1713.3 563.149 1712.22 561.244 1712.14C561.125 1712.13 561.006 1712.13 560.89 1712.13Z" fill="#000000" stroke="none"/>
</g>
<g opacity="1">
<path d="M571.144 1708.09C569.199 1708.09 567.621 1709.11 567.619 1710.37C566.555 1713.26 565.65 1716.33 565.311 1719.41C565.116 1721.17 565.385 1722.96 565.203 1724.72C565.072 1725.98 564.668 1727.26 564.394 1728.5C564.438 1728.77 564.808 1728.93 565.22 1728.86C565.632 1728.8 565.93 1728.52 565.886 1728.26C566.163 1727.01 566.338 1725.68 566.721 1724.46C567.21 1722.89 567.948 1721.23 568.672 1719.78C569.4 1718.32 570.506 1717.15 571.407 1715.81C572.592 1714.05 573.675 1712.27 574.662 1710.39C574.664 1709.12 573.089 1708.09 571.144 1708.09Z" fill="#000000" stroke="none"/>
</g>
<g opacity="1">
<path d="M576.366 1711.02C576.244 1711.02 576.12 1711.02 575.995 1711.03C573.999 1711.15 572.446 1712.31 572.526 1713.6C572.329 1714.49 572.164 1715.4 572.147 1716.31C572.113 1718.09 572.458 1719.92 572.238 1721.69C572.114 1722.68 571.755 1723.5 571.418 1724.42C571.434 1724.68 571.77 1724.87 572.17 1724.85C572.569 1724.82 572.879 1724.59 572.863 1724.33C573.254 1723.26 573.45 1722.57 574.043 1721.57C575.79 1718.64 578.208 1716.23 579.755 1713.16C579.68 1711.94 578.196 1711.03 576.366 1711.02Z" fill="#000000" stroke="none"/>
</g>
<g opacity="1">
<path d="M497.902 1743.65C497.41 1743.66 496.889 1743.75 496.366 1743.92C494.273 1744.57 492.922 1746.21 493.35 1747.57C493.436 1750.28 493.733 1752.98 494.587 1755.57C495.14 1757.25 495.895 1758.86 496.873 1760.33C502.741 1769.15 514.845 1769.92 524.367 1768.85C526.379 1768.62 528.376 1768.3 530.362 1767.9C532.379 1767.5 534.38 1767.03 536.363 1766.49C539.005 1765.77 541.611 1764.92 544.183 1763.99C547.854 1762.64 551.47 1761.1 555.013 1759.45C559.044 1757.57 562.902 1755.39 566.503 1752.78C566.648 1752.65 566.601 1752.37 566.402 1752.14C566.202 1751.92 565.924 1751.85 565.78 1751.98C562.31 1754.49 558.589 1756.59 554.705 1758.4C551.283 1759.99 547.75 1761.25 544.123 1762.29C541.654 1763 539.154 1763.61 536.633 1764.1C534.776 1764.47 532.908 1764.77 531.028 1764.99C521.566 1766.1 508.891 1765.52 503.418 1756.26C502.67 1755 502.117 1753.62 501.729 1752.21C501.101 1749.91 500.922 1747.56 500.93 1745.19C500.609 1744.17 499.38 1743.59 497.902 1743.65Z" fill="#000000" stroke="none"/>
</g>
<g opacity="1">
<path d="M573.027 1743.95C572.797 1743.94 572.605 1744.03 572.554 1744.19C566.529 1751.74 557.109 1755.23 547.993 1757.42C538.691 1759.65 529.451 1760.36 519.933 1760.82C511.948 1761.2 503.807 1761.04 495.848 1760.25C494.723 1759.63 493.046 1760.54 492.103 1762.27C491.161 1764 491.309 1765.9 492.434 1766.51C505.121 1767.39 517.798 1766.2 530.276 1763.87C537.482 1762.52 544.661 1760.79 551.562 1758.29C559.714 1755.34 568.202 1751.49 573.729 1744.57C573.797 1744.36 573.589 1744.1 573.264 1744C573.183 1743.97 573.103 1743.96 573.027 1743.95Z" fill="#000000" stroke="none"/>
</g>
<g opacity="1">
<path d="M576.839 1730.86C576.475 1730.85 576.094 1730.88 575.707 1730.95C573.642 1731.32 572.161 1732.7 572.4 1734.05C571.736 1738.58 571.49 1743.12 571.505 1747.7C571.511 1749.8 571.771 1751.88 571.826 1753.97C571.875 1755.82 571.551 1757.73 571.384 1759.57C571.452 1759.84 571.846 1759.98 572.263 1759.87C572.681 1759.77 572.964 1759.46 572.896 1759.19C573.046 1757.54 573.132 1755.87 573.335 1754.22C573.589 1752.17 574.206 1750.02 574.756 1748.05C575.451 1745.55 576.603 1743.25 577.426 1740.81C578.332 1738.13 579.183 1735.47 579.88 1732.71C579.686 1731.62 578.416 1730.9 576.839 1730.86Z" fill="#000000" stroke="none"/>
</g>
<g opacity="1">
<path d="M587.978 1759.94C587.857 1759.93 587.752 1759.96 587.692 1760.04C575.409 1770.74 560.84 1778.45 545.322 1783.29C535.568 1786.34 525.323 1788.32 515.07 1788.12C509.362 1788 503.379 1787.28 497.956 1785.45C496.167 1784.85 494.334 1784.16 492.78 1783.06C492.192 1782.65 491.647 1782.17 491.21 1781.59C489.78 1779.71 490.35 1777.5 491.658 1775.73C493.552 1773.18 496.594 1771.07 499.739 1770.41C500.827 1770.55 501.888 1769.32 502.109 1767.64C502.331 1765.97 501.63 1764.49 500.542 1764.35C494.284 1765.8 488.068 1770.07 484.875 1775.69C482.47 1779.92 482.611 1784.44 486.761 1787.47C487.759 1788.2 488.866 1788.78 490.011 1789.24C492.622 1790.29 495.443 1790.84 498.195 1791.38C505.719 1792.84 513.503 1792.61 521.073 1791.61C536.874 1789.53 552.092 1783.75 565.996 1776.08C574.031 1771.65 581.648 1766.76 588.588 1760.72C588.709 1760.55 588.607 1760.27 588.359 1760.09C588.236 1760 588.098 1759.94 587.978 1759.94Z" fill="#000000" stroke="none"/>
</g>
<g opacity="1">
<path d="M582.298 1754.14C579.993 1754.03 577.513 1755.32 575.635 1756.32C572.854 1757.8 570.195 1759.67 567.198 1760.7C565.69 1761.22 564.082 1761.32 562.513 1761.53C540.28 1764.56 518.003 1768.27 495.502 1768.23C494.373 1767.74 492.847 1768.76 492.095 1770.49C491.344 1772.23 491.649 1774.04 492.778 1774.53C500.903 1774.37 508.999 1773.78 517.049 1772.66C532.131 1770.55 546.981 1767.05 561.928 1764.18C563.615 1763.86 565.335 1763.63 566.956 1763.04C570.03 1761.91 572.72 1759.95 575.479 1758.24C577.557 1756.95 580.719 1754.72 583.297 1756C584.196 1756.44 584.876 1757.24 585.368 1758.1C587.341 1761.54 585.65 1765.65 583.818 1768.74C583.266 1769.67 582.66 1770.58 582.029 1771.46C581.427 1772.3 580.795 1773.11 580.154 1773.93C579.287 1775.02 578.392 1776.1 577.54 1777.2C577.477 1777.42 577.697 1777.67 578.028 1777.77C578.358 1777.87 578.675 1777.77 578.738 1777.56C579.793 1776.18 580.91 1774.86 581.967 1773.49C582.87 1772.32 583.741 1771.13 584.538 1769.88C587.068 1765.93 589.382 1760.59 586.177 1756.34C585.71 1755.72 585.193 1755.16 584.516 1754.77C583.816 1754.36 583.067 1754.17 582.298 1754.14Z" fill="#000000" stroke="none"/>
</g>
<g opacity="1">
<path d="M577.109 1778.86C577.06 1778.85 577.01 1778.85 576.964 1778.86C572.692 1780.96 568.24 1782.89 563.627 1784.1C551.296 1787.33 538.476 1787.13 525.85 1786.59C521.085 1786.38 516.309 1786.33 511.541 1786.23C510.411 1785.73 508.87 1786.73 508.096 1788.47C507.322 1790.21 507.61 1792.02 508.739 1792.53C516.101 1792.41 523.464 1792.27 530.803 1791.65C546.795 1790.27 562.821 1786.99 577.315 1779.89C577.5 1779.83 577.573 1779.55 577.476 1779.27C577.403 1779.05 577.256 1778.9 577.109 1778.86Z" fill="#000000" stroke="none"/>
</g>
<g opacity="1">
<path d="M504.52 1768.25C503.363 1768.22 502.405 1768.68 502.162 1769.48C500.743 1771.82 500.355 1774.48 499.147 1776.9C498.708 1777.79 498.144 1778.43 497.545 1779.2C497.48 1779.41 497.695 1779.67 498.023 1779.77C498.352 1779.87 498.671 1779.77 498.736 1779.56C499.41 1778.69 499.812 1778.1 500.634 1777.35C503.028 1775.18 505.858 1773.62 508.118 1771.28C508.441 1770.21 507.37 1768.94 505.725 1768.44C505.314 1768.32 504.906 1768.26 504.52 1768.25Z" fill="#000000" stroke="none"/>
</g>
<g opacity="1">
<path d="M518.283 1768.26C518.182 1768.25 518.058 1768.26 517.907 1768.3C517.81 1768.32 517.716 1768.35 517.624 1768.39C517.515 1768.43 517.356 1768.52 517.256 1768.59C515.695 1769.57 514.268 1770.84 512.845 1772.01C512.096 1772.62 511.352 1773.24 510.61 1773.86C509.486 1773.01 508.149 1772.87 507.541 1773.59C504.42 1776.27 500.711 1778.78 498.974 1782.65C498.591 1783.51 498.392 1784.4 498.234 1785.32C498.182 1785.63 498.058 1786.74 498.24 1786.86C498.918 1787.3 499.722 1787.52 500.463 1787.85C500.464 1787.85 500.467 1787.85 500.468 1787.85C501.153 1787.57 501.846 1787.31 502.525 1787.02C503.014 1786.81 503.506 1786.19 503.868 1785.82C504.798 1784.85 505.679 1783.84 506.579 1782.84C508.294 1780.95 510.02 1779.07 511.738 1777.18C511.738 1777.17 511.739 1777.17 511.74 1777.17C511.74 1777.17 511.741 1777.17 511.742 1777.17C512.742 1776.07 513.74 1774.97 514.73 1773.85C515.419 1773.08 516.1 1772.3 516.771 1771.51C517.144 1771.07 517.515 1770.63 517.872 1770.18C518.07 1769.93 519.257 1768.29 518.283 1768.26ZM517.846 1769.57C517.936 1769.56 517.735 1769.64 517.604 1769.65C517.694 1769.61 517.777 1769.58 517.846 1769.57Z" fill="#000000" stroke="none"/>
</g>
<g opacity="1">
<path d="M528.966 1765.16C527.246 1765.14 525.837 1765.97 525.747 1767.11C523.666 1771.45 522.137 1775.93 520.558 1780.46C519.937 1782.25 519.451 1784.16 518.674 1785.89C517.996 1787.4 517.19 1788.87 516.451 1790.35C516.439 1790.6 516.739 1790.81 517.12 1790.83C517.501 1790.85 517.819 1790.66 517.83 1790.41C518.666 1788.74 519.41 1786.96 520.401 1785.38C524.205 1779.28 528.847 1773.81 532.533 1767.65C532.629 1766.43 531.187 1765.32 529.313 1765.17C529.196 1765.16 529.08 1765.16 528.966 1765.16Z" fill="#000000" stroke="none"/>
</g>
<g opacity="1">
<path d="M535.753 1773.19C534.224 1773.19 532.98 1773.91 532.843 1774.94C532.471 1775.78 532.124 1776.63 531.909 1777.52C531.491 1779.24 531.401 1781.09 530.817 1782.77C530.49 1783.71 529.99 1784.44 529.481 1785.29C529.45 1785.53 529.72 1785.76 530.084 1785.81C530.448 1785.86 530.769 1785.7 530.8 1785.47C531.382 1784.5 531.712 1783.85 532.464 1782.99C534.666 1780.46 537.395 1778.5 539.437 1775.82C539.594 1774.63 538.244 1773.48 536.423 1773.24C536.196 1773.21 535.971 1773.19 535.753 1773.19Z" fill="#000000" stroke="none"/>
</g>
<g opacity="1">
<path d="M549.785 1768.2C548.266 1768.18 547.019 1768.87 546.869 1769.9C545.493 1772.37 544.119 1774.88 543.059 1777.51C542.113 1779.85 541.115 1782.16 540.101 1784.48C539.468 1785.92 538.904 1787.46 538.145 1788.85C537.317 1790.36 536.367 1791.82 535.481 1793.29C535.45 1793.53 535.72 1793.76 536.084 1793.81C536.448 1793.86 536.768 1793.7 536.799 1793.47C537.686 1791.99 538.525 1790.47 539.465 1789.02C542.093 1784.98 545.542 1781.54 548.425 1777.71C550.125 1775.44 551.823 1773.21 553.412 1770.86C553.583 1769.68 552.258 1768.52 550.451 1768.25C550.225 1768.22 550.003 1768.2 549.785 1768.2Z" fill="#000000" stroke="none"/>
</g>
<g opacity="1">
<path d="M559.829 1763.21C558.323 1763.16 557.074 1763.83 556.905 1764.84C554.895 1768.37 553.148 1772.02 551.691 1775.8C550.906 1777.84 550.433 1780.03 549.589 1782.04C548.973 1783.51 548.161 1784.92 547.45 1786.35C547.439 1786.6 547.739 1786.81 548.12 1786.83C548.501 1786.85 548.819 1786.66 548.831 1786.41C549.544 1784.98 550.185 1783.49 550.972 1782.1C551.968 1780.34 553.227 1778.61 554.411 1776.98C555.637 1775.3 557.092 1773.84 558.453 1772.28C560.22 1770.25 561.827 1768.11 563.375 1765.92C563.568 1764.75 562.275 1763.57 560.489 1763.28C560.265 1763.24 560.045 1763.22 559.829 1763.21Z" fill="#000000" stroke="none"/>
</g>
<g opacity="1">
<path d="M566.979 1762.16C565.264 1762.13 563.853 1762.96 563.757 1764.09C563.388 1765 563.046 1765.93 562.838 1766.89C562.435 1768.76 562.368 1770.73 561.795 1772.56C561.474 1773.58 560.974 1774.39 560.464 1775.32C560.444 1775.57 560.73 1775.79 561.104 1775.82C561.477 1775.85 561.796 1775.68 561.817 1775.44C562.398 1774.37 562.727 1773.67 563.485 1772.7C565.698 1769.89 568.481 1767.63 570.523 1764.66C570.626 1763.45 569.194 1762.34 567.326 1762.18C567.209 1762.17 567.093 1762.16 566.979 1762.16Z" fill="#000000" stroke="none"/>
</g>
<g opacity="1">
<path d="M576.091 1763.07C574.127 1763.11 572.557 1764.18 572.584 1765.45C572.303 1766.43 572.052 1767.43 571.944 1768.44C571.736 1770.41 571.892 1772.45 571.502 1774.4C571.284 1775.49 570.854 1776.38 570.429 1777.39C570.435 1777.65 570.758 1777.85 571.15 1777.84C571.543 1777.83 571.857 1777.62 571.852 1777.36C572.336 1776.2 572.599 1775.44 573.279 1774.36C575.265 1771.21 577.904 1768.59 579.697 1765.3C579.67 1764.03 578.056 1763.03 576.091 1763.07Z" fill="#000000" stroke="none"/>
</g>
<g opacity="1">
<path d="M586.142 1759.09C584.196 1759.09 582.618 1760.11 582.618 1761.38C582.418 1762.11 582.247 1762.87 582.222 1763.63C582.173 1765.11 582.492 1766.66 582.261 1768.13C582.131 1768.95 581.77 1769.63 581.436 1770.38C581.436 1770.63 581.751 1770.84 582.14 1770.84C582.529 1770.84 582.845 1770.63 582.845 1770.38C583.241 1769.49 583.434 1768.93 584.02 1768.13C585.766 1765.74 588.099 1763.92 589.663 1761.38C589.664 1760.12 588.088 1759.09 586.142 1759.09Z" fill="#000000" stroke="none"/>
</g>
<g opacity="1">
<path d="M455.722 1747.21C451.208 1747.22 446.616 1748.06 442.627 1750.05C438.314 1752.21 434.467 1756.16 434.81 1761.31C434.906 1762.75 435.304 1764.16 435.849 1765.5C436.632 1767.42 437.709 1769.62 439.292 1771.01C441.046 1772.54 443.495 1773.2 445.714 1773.71C450.137 1774.72 454.687 1775.03 459.172 1775.65C460.219 1775.8 461.267 1775.94 462.306 1776.13C464.039 1776.44 468.294 1777.09 469.31 1778.96C469.794 1779.85 469.853 1781.07 469.809 1782.05C469.682 1784.87 468.348 1787.55 466.758 1789.81C462.253 1796.22 452.312 1802.94 444.491 1798.28C438.214 1794.54 436.562 1785.74 435.896 1779.11C435.797 1778.83 435.378 1778.74 434.961 1778.89C434.543 1779.04 434.286 1779.38 434.385 1779.65C435.072 1786.49 436.648 1794.94 442.822 1799.06C450.831 1804.42 461.573 1798.54 467.28 1792.42C468.468 1791.15 469.553 1789.77 470.475 1788.29C471.72 1786.29 472.712 1784.08 473.066 1781.74C473.291 1780.25 473.326 1778.47 472.686 1777.08C471.3 1774.06 465.754 1773.04 463.005 1772.45C458.749 1771.55 454.42 1770.97 450.207 1769.87C448.26 1769.36 446.014 1768.76 444.464 1767.4C443.735 1766.76 443.304 1765.83 442.844 1764.99C442.25 1763.91 441.716 1762.81 441.392 1761.62C441.185 1760.86 441.058 1760.07 441.075 1759.28C441.153 1755.63 444.21 1754.44 447.322 1753.79C452.527 1752.69 459.662 1753.07 464.19 1756.12C465.172 1757.18 467.289 1756.81 468.919 1755.3C470.549 1753.79 471.074 1751.7 470.091 1750.64C467.118 1748.75 463.661 1747.86 460.184 1747.46C458.723 1747.29 457.227 1747.21 455.722 1747.21Z" fill="#000000" stroke="none"/>
</g>
<g opacity="1">
<path d="M452.911 1740.65C452.419 1740.67 451.899 1740.75 451.376 1740.92C449.282 1741.56 447.927 1743.19 448.35 1744.55C448.551 1750.78 448.989 1756.93 449.732 1763.12C450.857 1772.48 452.638 1781.77 453.67 1791.14C454.126 1795.28 454.168 1799.48 454.384 1803.63C454.475 1803.91 454.887 1804.01 455.306 1803.87C455.724 1803.73 455.989 1803.4 455.897 1803.13C455.681 1798.96 455.332 1794.77 455.248 1790.6C455.051 1780.79 455.375 1770.97 455.597 1761.16C455.739 1754.85 455.83 1748.53 455.931 1742.2C455.615 1741.18 454.388 1740.6 452.911 1740.65Z" fill="#000000" stroke="none"/>
</g>
<g opacity="1">
<path d="M458.118 1719.7C451.467 1719.76 444.95 1724.6 440.537 1729.12C434.133 1735.68 429.616 1743.94 426.364 1752.45C421.337 1765.6 418.529 1780.11 420.582 1794.18C421.816 1802.63 425.102 1811.35 432.159 1816.63C435.936 1819.45 440.694 1821.26 445.305 1822.09C447.864 1822.56 450.481 1822.71 453.075 1822.51C469.432 1821.24 481.785 1807.36 489.218 1793.87C490.582 1791.4 491.829 1788.86 492.961 1786.27C494.304 1783.2 495.46 1780.06 496.505 1776.87C497.839 1772.81 498.908 1768.66 499.623 1764.44C499.955 1762.48 500.211 1760.51 500.371 1758.52C501.111 1749.34 499.905 1735.45 488.681 1733.31C487.405 1733.06 486.133 1733.03 484.858 1733.09C484.844 1731.94 484.367 1731 483.557 1730.76C480.656 1731.12 477.981 1729.72 475.596 1728.22C472.361 1726.17 469.421 1723.63 466.02 1721.85C463.976 1720.78 461.759 1719.96 459.449 1719.75C459.005 1719.71 458.562 1719.69 458.118 1719.7ZM455.577 1725.71C459.015 1725.77 462.485 1728.44 465.078 1730.29C470.31 1734.03 474.973 1737.72 481.724 1737C482.844 1737.33 484.161 1736.2 484.667 1734.48C484.681 1734.43 484.687 1734.38 484.699 1734.33C485.753 1734.3 486.803 1734.34 487.859 1734.54C497.055 1736.3 499.071 1746.89 499.037 1754.77C499.031 1756.15 498.97 1757.53 498.859 1758.91C498.701 1760.87 498.448 1762.81 498.121 1764.74C495.477 1780.34 487.949 1796.52 476.862 1807.9C471.1 1813.81 463.779 1818.77 455.38 1819.64C452.661 1819.92 449.915 1819.76 447.241 1819.2C443.066 1818.32 438.76 1816.52 435.412 1813.84C429.286 1808.92 426.508 1801.04 425.539 1793.48C424.505 1785.41 425.286 1777.17 426.992 1769.25C428.591 1761.82 430.903 1754.59 434.276 1747.78C437.286 1741.7 440.963 1735.73 445.917 1731.03C448.14 1728.93 451.697 1726 454.891 1725.73C455.119 1725.71 455.348 1725.7 455.577 1725.71Z" fill="#000000" stroke="none"/>
</g>
<g opacity="1">
<path d="M482.219 1737.38C481.504 1737.41 480.719 1737.61 479.957 1737.98C477.923 1738.99 476.804 1740.88 477.457 1742.2C485.174 1763.64 486.098 1788.59 474.78 1809.03C472.27 1813.57 469.133 1817.79 465.329 1821.32C462.625 1823.83 459.584 1826 456.244 1827.58C453.863 1828.71 451.329 1829.53 448.731 1829.98C432.975 1832.7 419.774 1821.24 411.98 1808.73C406.628 1800.14 402.89 1790.66 399.879 1781.03C399.753 1780.76 399.322 1780.7 398.913 1780.9C398.504 1781.09 398.273 1781.47 398.399 1781.73C401.541 1791.78 405.475 1801.69 411.198 1810.58C415.552 1817.34 420.846 1823.79 427.745 1828.07C430.413 1829.73 433.296 1831.03 436.328 1831.85C454.166 1836.7 470.363 1823.96 479.218 1809.56C489.152 1793.41 492.079 1773.6 489.075 1755.03C488.165 1749.41 486.656 1743.95 484.821 1738.56C484.413 1737.74 483.411 1737.32 482.219 1737.38Z" fill="#000000" stroke="none"/>
</g>
<g opacity="1">
<path d="M350.577 1714.97C347.175 1715.01 343.801 1715.3 340.404 1716.05C332.417 1717.81 325.482 1721.6 319.074 1726.56C318.42 1727.3 318.816 1728.72 319.957 1729.72C321.098 1730.73 322.553 1730.94 323.207 1730.2C328.344 1725.86 333.992 1721.79 340.33 1719.41C345.327 1717.54 350.822 1716.5 356.158 1716.38C359.363 1716.3 362.604 1716.68 365.786 1717C366.011 1717.13 366.352 1716.96 366.547 1716.61C366.743 1716.26 366.719 1715.88 366.495 1715.75C363.24 1715.42 360.006 1715.26 356.741 1715.11C354.669 1715.01 352.618 1714.95 350.577 1714.97Z" fill="#000000" stroke="none"/>
</g>
<g opacity="1">
<path d="M315.034 1731.74C314.55 1731.73 314.035 1731.79 313.513 1731.92C311.424 1732.45 310.011 1733.99 310.357 1735.34C310.255 1737.02 310.296 1738.69 310.648 1740.34C312.171 1747.48 318.911 1751.18 325.553 1752.67C335.329 1754.86 345.398 1754.05 355.246 1752.91C359.55 1752.42 363.811 1751.9 368.052 1750.99C368.27 1751.02 368.486 1750.77 368.535 1750.44C368.584 1750.1 368.447 1749.8 368.229 1749.77C364.102 1750.66 359.867 1751.38 355.651 1751.66C351.259 1751.96 346.769 1751.78 342.393 1751.36C337.821 1750.92 333.161 1750.13 328.885 1748.4C327.112 1747.68 325.221 1746.85 323.653 1745.75C319.36 1742.72 317.364 1738.64 317.922 1733.41C317.663 1732.4 316.487 1731.77 315.034 1731.74Z" fill="#000000" stroke="none"/>
</g>
<g opacity="1">
<path d="M314.927 1744.66C314.435 1744.67 313.916 1744.76 313.392 1744.92C311.299 1745.55 309.936 1747.17 310.35 1748.53C310.434 1753.18 310.378 1757.87 310.891 1762.5C311.055 1763.98 311.227 1766.8 312.245 1768.11C313.329 1769.5 315.538 1770.16 317.175 1770.53C320.577 1771.29 324.15 1771.4 327.623 1771.46C336.129 1771.6 344.584 1770.78 353.049 1770.09C358.006 1769.68 362.974 1769.42 367.931 1769.01C368.156 1769.08 368.432 1768.86 368.548 1768.52C368.663 1768.17 368.574 1767.83 368.349 1767.75C363.421 1768.17 358.471 1768.66 353.527 1768.8C346.373 1769.01 339.112 1768.81 331.99 1768.11C328.456 1767.76 324.827 1767.33 321.449 1766.18C320.18 1765.75 318.964 1765.27 317.914 1764.46C317.894 1764.3 317.868 1764.15 317.854 1764C317.801 1763.42 317.794 1763.37 317.773 1762.76C317.731 1761.56 317.717 1760.36 317.714 1759.15C317.703 1754.84 317.837 1750.54 317.931 1746.23C317.621 1745.21 316.401 1744.62 314.927 1744.66Z" fill="#000000" stroke="none"/>
</g>
<g opacity="1">
<path d="M325.498 1752.99C325.315 1752.99 325.129 1753 324.94 1753.01C322.928 1753.18 321.386 1754.38 321.497 1755.69C321.383 1756.41 321.302 1757.15 321.372 1757.88C321.508 1759.31 322.034 1760.77 321.981 1762.21C321.951 1763.01 321.661 1763.69 321.412 1764.44C321.434 1764.7 321.778 1764.89 322.18 1764.85C322.583 1764.82 322.891 1764.58 322.869 1764.32C323.168 1763.42 323.296 1762.87 323.8 1762.05C325.311 1759.6 327.474 1757.67 328.784 1755.07C328.684 1753.89 327.261 1753.02 325.498 1752.99Z" fill="#000000" stroke="none"/>
</g>
<g opacity="1">
<path d="M332.999 1752.17C331.29 1752.12 329.878 1752.93 329.773 1754.07C329.486 1754.81 329.225 1755.58 329.101 1756.37C328.86 1757.9 328.962 1759.55 328.55 1761.05C328.318 1761.9 327.887 1762.56 327.467 1763.32C327.445 1763.56 327.728 1763.78 328.1 1763.82C328.472 1763.85 328.791 1763.68 328.814 1763.44C329.305 1762.56 329.566 1761.99 330.231 1761.21C332.201 1758.9 334.702 1757.16 336.508 1754.69C336.621 1753.48 335.204 1752.36 333.344 1752.19C333.228 1752.18 333.112 1752.17 332.999 1752.17Z" fill="#000000" stroke="none"/>
</g>
<g opacity="1">
<path d="M340.427 1752.05C340.307 1752.05 340.184 1752.05 340.061 1752.06C338.086 1752.12 336.521 1753.22 336.565 1754.5C335.983 1756.16 335.382 1757.81 334.882 1759.49C334.76 1759.9 334.643 1760.32 334.539 1760.74C334.437 1761.15 334.373 1761.57 334.265 1761.98C333.998 1762.98 333.08 1764.93 333.909 1765.83C335.808 1767.89 339.028 1764.47 340.404 1763.32C340.75 1763.03 341.095 1762.74 341.442 1762.46C341.789 1762.17 342.136 1761.88 342.485 1761.6C342.828 1761.31 343.172 1761.03 343.516 1760.75C343.03 1763.03 342.147 1765.23 341.412 1767.44C341.434 1767.7 341.778 1767.89 342.18 1767.85C342.583 1767.82 342.891 1767.58 342.869 1767.32C343.119 1766.57 343.369 1765.82 343.619 1765.07C344.127 1763.54 344.59 1762.02 345.253 1760.56C345.426 1760.18 345.601 1759.8 345.775 1759.42C346.022 1758.88 346.547 1757.95 345.674 1757.67C344.869 1757.41 342.975 1758.63 342.25 1759.02C341.918 1759.2 341.587 1759.37 341.255 1759.55C341.5 1759.07 341.718 1758.61 342.001 1758.02C342.59 1756.77 343.152 1755.51 343.716 1754.26C343.675 1753.05 342.234 1752.11 340.427 1752.05ZM343.862 1759C343.873 1759 343.848 1759.13 343.832 1759.21C343.816 1759.15 343.819 1759.09 343.852 1759.02C343.857 1759.01 343.86 1759 343.862 1759ZM336.595 1761.98C336.461 1762.05 336.326 1762.12 336.192 1762.19C336.068 1762.25 335.944 1762.31 335.819 1762.37C335.751 1762.41 335.553 1762.52 335.611 1762.47C335.874 1762.25 336.221 1762.08 336.595 1761.98Z" fill="#000000" stroke="none"/>
</g>
<g opacity="1">
<path d="M355.142 1755.09C353.196 1755.09 351.618 1756.11 351.618 1757.38C351.418 1758.11 351.247 1758.87 351.222 1759.63C351.173 1761.11 351.492 1762.66 351.261 1764.13C351.131 1764.95 350.77 1765.63 350.436 1766.38C350.436 1766.63 350.751 1766.84 351.14 1766.84C351.529 1766.84 351.845 1766.63 351.845 1766.38C352.241 1765.49 352.434 1764.93 353.02 1764.13C354.766 1761.74 357.099 1759.92 358.663 1757.38C358.664 1756.12 357.088 1755.09 355.142 1755.09Z" fill="#000000" stroke="none"/>
</g>
<g opacity="1">
<path d="M321.902 1774.65C321.409 1774.66 320.887 1774.75 320.364 1774.92C318.271 1775.58 316.922 1777.21 317.35 1778.57C317.416 1780.24 317.598 1781.89 318.098 1783.49C320.449 1790.99 328.138 1792.53 335.183 1791.83C344.225 1790.95 352.734 1787.48 361.011 1783.95C364.816 1782.33 368.612 1780.73 372.322 1778.89C372.506 1778.83 372.573 1778.54 372.473 1778.26C372.373 1777.98 372.144 1777.8 371.96 1777.87C368.335 1779.66 364.634 1781.44 360.832 1782.82C357.268 1784.13 353.564 1785.15 349.868 1786C346.014 1786.89 342.049 1787.56 338.082 1787.52C336.021 1787.5 333.838 1787.3 331.846 1786.74C326.746 1785.3 324.882 1781.14 324.931 1776.19C324.61 1775.17 323.38 1774.59 321.902 1774.65Z" fill="#000000" stroke="none"/>
</g>
<g opacity="1">
<path d="M321.339 1790.45C320.628 1790.45 319.842 1790.61 319.069 1790.95C317.007 1791.86 315.817 1793.69 316.408 1795.03C316.826 1796.6 317.379 1798.11 318.213 1799.52C322.442 1806.66 331.366 1808.74 339.052 1809.34C346.373 1809.9 353.896 1809.07 361.142 1808.01C367.759 1807.05 374.274 1805.63 380.786 1804.12C386.573 1802.79 392.358 1801.5 398.101 1799.98C398.315 1799.99 398.505 1799.73 398.527 1799.41C398.549 1799.08 398.395 1798.8 398.181 1798.78C392.5 1800.29 386.776 1801.8 380.99 1802.85C376.064 1803.74 371.075 1804.37 366.093 1804.84C358.011 1805.6 349.914 1805.76 341.875 1804.48C334.163 1803.26 325.773 1800.19 323.873 1791.73C323.503 1790.89 322.524 1790.44 321.339 1790.45Z" fill="#000000" stroke="none"/>
</g>
<g opacity="1">
<path d="M339.142 1787.09C337.197 1787.09 335.618 1788.11 335.617 1789.38C335.418 1790.11 335.247 1790.87 335.222 1791.63C335.173 1793.11 335.492 1794.66 335.261 1796.13C335.131 1796.95 334.77 1797.63 334.436 1798.38C334.436 1798.63 334.751 1798.84 335.14 1798.84C335.529 1798.84 335.845 1798.63 335.845 1798.38C336.241 1797.49 336.434 1796.93 337.02 1796.13C338.765 1793.75 341.099 1791.92 342.663 1789.38C342.664 1788.12 341.088 1787.09 339.142 1787.09Z" fill="#000000" stroke="none"/>
</g>
<g opacity="1">
<path d="M349.576 1786.22C348.229 1786.23 347.136 1786.84 346.957 1787.76C345.779 1790.14 345.773 1792.58 344.845 1794.98C344.511 1795.84 344.013 1796.49 343.504 1797.26C343.46 1797.49 343.709 1797.73 344.061 1797.79C344.412 1797.86 344.733 1797.73 344.777 1797.5C345.361 1796.63 345.691 1796.05 346.435 1795.28C348.62 1793.04 351.286 1791.4 353.324 1788.99C353.545 1787.85 352.298 1786.65 350.54 1786.31C350.21 1786.25 349.886 1786.22 349.576 1786.22Z" fill="#000000" stroke="none"/>
</g>
<g opacity="1">
<path d="M354.719 1785.18C353.18 1785.21 351.939 1785.95 351.816 1786.99C351.363 1787.99 350.935 1789 350.637 1790.06C350.058 1792.1 349.803 1794.28 349.06 1796.28C348.644 1797.4 348.074 1798.27 347.476 1799.3C347.448 1799.54 347.723 1799.77 348.09 1799.81C348.457 1799.85 348.777 1799.7 348.805 1799.46C349.477 1798.31 349.876 1797.53 350.72 1796.48C353.169 1793.44 356.182 1790.96 358.464 1787.77C358.604 1786.58 357.23 1785.43 355.394 1785.22C355.164 1785.19 354.938 1785.18 354.719 1785.18Z" fill="#000000" stroke="none"/>
</g>
<g opacity="1">
<path d="M366.52 1782.25C365.363 1782.22 364.405 1782.68 364.163 1783.48C362.743 1785.82 362.355 1788.48 361.147 1790.9C360.708 1791.79 360.144 1792.43 359.545 1793.2C359.48 1793.41 359.694 1793.67 360.023 1793.77C360.352 1793.87 360.671 1793.77 360.736 1793.56C361.409 1792.69 361.812 1792.1 362.634 1791.35C365.028 1789.18 367.858 1787.62 370.118 1785.28C370.441 1784.21 369.37 1782.94 367.725 1782.44C367.314 1782.32 366.906 1782.26 366.52 1782.25Z" fill="#000000" stroke="none"/>
</g>
<g opacity="1">
<path d="M368.891 1783.13C367.146 1783.17 365.744 1784.06 365.691 1785.22C365.324 1786.21 364.985 1787.21 364.783 1788.25C364.391 1790.25 364.344 1792.37 363.779 1794.34C363.462 1795.45 362.962 1796.33 362.451 1797.35C362.439 1797.6 362.739 1797.81 363.12 1797.83C363.501 1797.85 363.819 1797.66 363.83 1797.41C364.409 1796.25 364.739 1795.48 365.502 1794.42C367.722 1791.33 370.549 1788.78 372.59 1785.54C372.647 1784.3 371.148 1783.22 369.243 1783.14C369.124 1783.13 369.007 1783.13 368.891 1783.13Z" fill="#000000" stroke="none"/>
</g>
<g opacity="1">
<path d="M375.891 1781.13C374.147 1781.17 372.745 1782.06 372.692 1783.22C371.317 1786.43 370.387 1789.68 369.516 1793.05C369.034 1794.91 368.718 1796.9 368.058 1798.71C367.604 1799.96 366.971 1801.17 366.436 1802.38C366.436 1802.63 366.752 1802.84 367.141 1802.84C367.53 1802.84 367.846 1802.63 367.846 1802.38C368.382 1801.17 368.856 1799.89 369.468 1798.71C371.212 1795.36 373.619 1792.47 375.82 1789.43C377.193 1787.54 378.426 1785.57 379.59 1783.54C379.647 1782.3 378.149 1781.23 376.244 1781.14C376.125 1781.13 376.007 1781.13 375.891 1781.13Z" fill="#000000" stroke="none"/>
</g>
<g opacity="1">
<path d="M385.575 1782.22C384.229 1782.23 383.136 1782.84 382.957 1783.76C381.779 1786.14 381.773 1788.58 380.845 1790.98C380.511 1791.84 380.012 1792.49 379.504 1793.26C379.46 1793.49 379.709 1793.73 380.06 1793.79C380.412 1793.86 380.733 1793.73 380.777 1793.5C381.361 1792.63 381.691 1792.05 382.435 1791.28C384.621 1789.04 387.286 1787.4 389.324 1784.99C389.545 1783.85 388.298 1782.65 386.54 1782.31C386.21 1782.25 385.886 1782.22 385.575 1782.22Z" fill="#000000" stroke="none"/>
</g>
<g opacity="1">
<path d="M392.89 1783.13C391.146 1783.17 389.745 1784.06 389.691 1785.22C389.407 1786.04 389.15 1786.89 389.033 1787.75C388.806 1789.42 388.931 1791.19 388.529 1792.84C388.303 1793.76 387.872 1794.51 387.451 1795.35C387.439 1795.6 387.739 1795.81 388.12 1795.83C388.501 1795.85 388.819 1795.66 388.83 1795.41C389.319 1794.43 389.58 1793.8 390.252 1792.92C392.23 1790.32 394.786 1788.29 396.59 1785.54C396.646 1784.3 395.148 1783.22 393.243 1783.14C393.124 1783.13 393.007 1783.13 392.89 1783.13Z" fill="#000000" stroke="none"/>
</g>
<g opacity="1">
<path d="M332.264 1658.25C324.846 1658.16 317.186 1660.63 310.674 1664.42C297.661 1672.01 286.219 1686.92 289.553 1702.77C290.056 1705.17 290.883 1707.48 291.969 1709.67C293.864 1713.49 296.441 1717.08 299.425 1720.11C301.549 1722.28 303.963 1724.17 306.626 1725.63C320.258 1733.09 336.002 1726.87 345.887 1716.21C355.444 1705.91 360.679 1690.4 354.59 1677.02C353.292 1674.17 351.547 1671.63 349.523 1669.28C350.736 1667.97 351.139 1666.35 350.379 1665.37C345.166 1660.43 338.809 1658.34 332.264 1658.25ZM328.517 1664.27C332.263 1664.22 335.966 1665.01 339.372 1666.92C341.054 1667.86 342.529 1669.05 343.904 1670.39C344.721 1671.44 346.589 1671.38 348.264 1670.33C350.21 1672.6 351.887 1675.06 353.14 1677.81C358.537 1689.67 354.874 1703.34 346.796 1713C338.375 1723.08 324.097 1730.25 311.297 1723.99C308.872 1722.81 306.667 1721.21 304.717 1719.35C302.402 1717.14 300.445 1714.58 298.782 1711.85C297.192 1709.24 295.842 1706.49 295.043 1703.54C292.826 1695.33 295.133 1686.89 299.951 1680.07C301.632 1677.69 303.648 1675.56 305.854 1673.67C311.827 1668.52 320.277 1664.37 328.517 1664.27Z" fill="#000000" stroke="none"/>
</g>
<g opacity="1">
<path d="M328.331 1671.76C327.906 1671.77 327.481 1671.8 327.06 1671.86C325.711 1672.05 324.401 1672.5 323.256 1673.25C322.637 1673.65 322.059 1674.15 321.572 1674.71C318.95 1677.71 320.204 1681.42 321.545 1684.66C322.404 1686.73 323.352 1688.72 324.422 1690.69C325.057 1691.86 325.311 1692.32 325.937 1693.5C326.684 1694.9 327.417 1696.3 328.113 1697.73C329.155 1699.87 330.174 1702.07 330.826 1704.37C331.335 1706.17 331.873 1708.6 330.863 1710.34C329.93 1711.95 327.598 1712.21 325.943 1712.32C322.122 1712.57 317.999 1712.13 314.633 1710.2C311.462 1708.39 308.789 1705.82 305.729 1703.83C305.533 1703.62 305.11 1703.69 304.784 1704C304.459 1704.3 304.355 1704.72 304.551 1704.93C307.972 1707.15 310.936 1710.15 314.636 1711.93C317.004 1713.07 319.742 1713.53 322.324 1713.88C324.093 1714.12 325.913 1714.23 327.687 1713.96C328.684 1713.81 329.672 1713.54 330.577 1713.09C336.749 1710.02 334.552 1702.12 332.933 1697.02C332.608 1695.99 332.245 1694.98 331.887 1693.96C331.524 1692.93 331.147 1691.91 330.774 1690.89C330.227 1689.39 329.681 1687.89 329.151 1686.39C328.278 1683.92 327.241 1681.5 326.882 1678.89C326.847 1678.63 326.771 1678.21 326.728 1677.78C326.763 1677.79 326.796 1677.79 326.831 1677.8C327.489 1677.91 328.137 1678.06 328.78 1678.24C330.772 1678.79 332.692 1679.54 334.6 1680.33C335.658 1681.24 337.653 1680.66 339.056 1679.03C340.459 1677.4 340.738 1675.34 339.68 1674.43C337.217 1673.52 334.724 1672.64 332.138 1672.13C330.892 1671.89 329.607 1671.72 328.331 1671.76ZM326.898 1676.43C326.93 1676.39 326.868 1676.53 326.839 1676.58C326.821 1676.61 326.801 1676.63 326.783 1676.66C326.812 1676.57 326.85 1676.49 326.898 1676.43Z" fill="#000000" stroke="none"/>
</g>
<g opacity="1">
<path d="M336.63 1665.16C335.069 1665.25 333.837 1666.04 333.751 1667.11C322.998 1687.64 311.115 1707.61 302.485 1729.18C300.206 1734.88 298.063 1740.56 296.402 1746.47C296.435 1746.73 296.791 1746.91 297.198 1746.86C297.606 1746.81 297.911 1746.55 297.879 1746.29C299.512 1740.47 301.438 1734.67 303.941 1729.16C309.943 1715.96 318.101 1703.87 325.921 1691.71C331.005 1683.81 335.949 1675.86 340.53 1667.65C340.628 1666.44 339.191 1665.33 337.319 1665.18C337.085 1665.16 336.853 1665.15 336.63 1665.16Z" fill="#000000" stroke="none"/>
</g>
<g opacity="1">
<path d="M331.169 1791.77C327.131 1791.83 323.066 1792.69 319.103 1794.48C317.784 1794.41 316.427 1794.46 315.028 1794.65C312.949 1794.93 310.919 1795.51 308.979 1796.3C306.487 1797.33 304.158 1798.72 302.019 1800.35C298.986 1802.67 296.338 1805.46 294.043 1808.5C291.328 1812.1 289.11 1816.06 287.316 1820.19C285.931 1823.37 284.805 1826.67 283.95 1830.04C279.924 1845.9 280.929 1865.45 294.245 1876.81C296.453 1878.69 298.914 1880.26 301.536 1881.5C305.424 1883.34 309.634 1884.45 313.89 1885.02C324.071 1886.38 334.988 1885.37 344.106 1880.42C349.215 1877.65 353.709 1873.91 357.977 1870C362.102 1866.22 365.94 1862.2 368.895 1857.42C374.601 1848.19 376.39 1837.19 373.607 1826.67C372.606 1822.89 371.063 1819.25 369.11 1815.87C361.536 1802.73 346.542 1791.56 331.169 1791.77ZM331.542 1793.07C344.598 1793.3 357.579 1801.92 364.852 1812.41C366.801 1815.23 368.45 1818.26 369.734 1821.43C374.554 1833.34 373.542 1846.21 366.536 1857.04C363.407 1861.88 359.306 1865.83 354.978 1869.58C349.046 1874.72 342.515 1879.43 334.705 1881.11C331.056 1881.9 327.236 1882.05 323.512 1881.99C312.945 1881.81 302.243 1878.59 295.437 1870.03C293.878 1868.07 292.578 1865.91 291.542 1863.63C285.558 1850.47 287.502 1834.59 293.018 1821.63C294.929 1817.14 297.355 1812.83 300.467 1809.05C302.224 1806.92 304.216 1804.96 306.507 1803.4C307.55 1802.69 308.664 1802.08 309.834 1801.61C309.871 1801.64 309.903 1801.67 309.947 1801.7C310.219 1801.86 310.526 1801.85 310.632 1801.67C310.832 1801.48 311.044 1801.3 311.247 1801.11C320.513 1798.38 328.571 1805.87 333.721 1812.69C334.549 1813.91 336.752 1813.87 338.641 1812.6C340.529 1811.33 341.389 1809.3 340.561 1808.07C335.593 1801.63 329.222 1796.02 321.361 1794.73C324.692 1793.53 328.119 1793 331.542 1793.07Z" fill="#000000" stroke="none"/>
</g>
<g opacity="1">
<path d="M330.673 1812.28C329.324 1812.32 327.972 1812.52 326.645 1812.76C320.22 1813.9 311.915 1817.43 311.862 1825.12C311.84 1828.28 313.257 1831.36 314.778 1834.06C316.203 1836.59 318.063 1838.86 319.968 1841.04C322.849 1844.34 325.982 1847.41 329.202 1850.37C331.74 1852.7 334.355 1854.95 336.986 1857.18C337.575 1857.67 338.168 1858.17 338.749 1858.68C338.859 1858.78 338.966 1858.87 339.075 1858.97C339.032 1859.03 338.99 1859.1 338.947 1859.16C338.724 1859.48 338.46 1859.83 338.216 1860.13C337.228 1861.35 336.078 1862.44 334.81 1863.37C330.74 1866.36 325.621 1867.68 320.625 1867.79C310.011 1868.04 297.597 1862.45 295.17 1851.15C294.746 1849.18 294.706 1847.19 294.896 1845.19C294.829 1844.92 294.436 1844.78 294.019 1844.89C293.601 1844.99 293.317 1845.3 293.384 1845.57C292.43 1855.64 298.624 1863.2 307.738 1866.95C318.697 1871.45 332.543 1870.39 340.762 1861.09C341.447 1860.32 343.4 1858.31 342.736 1857.23C342.135 1856.25 340.994 1855.41 340.187 1854.63C338.464 1852.95 336.746 1851.27 335.065 1849.55C333.288 1847.73 331.543 1845.88 329.866 1843.97C328.447 1842.36 327.066 1840.7 325.755 1839C324.795 1837.75 323.875 1836.46 323.011 1835.14C322.492 1834.35 321.917 1833.41 321.431 1832.59C319.91 1830.04 318.404 1827.21 318.317 1824.16C318.283 1822.95 318.497 1821.56 319.42 1820.68C321.104 1819.08 324.114 1818.73 326.281 1818.46C327.946 1818.25 329.516 1818.33 331.16 1818.68C334.495 1819.38 337.678 1820.68 340.999 1821.45C342.1 1822.22 343.952 1821.47 345.134 1819.77C346.317 1818.08 346.384 1816.08 345.282 1815.31C341.876 1814.59 338.604 1813.33 335.18 1812.69C333.695 1812.41 332.186 1812.24 330.673 1812.28Z" fill="#000000" stroke="none"/>
</g>
<g opacity="1">
<path d="M344.067 1802.06C342.094 1802.12 340.526 1803.21 340.567 1804.49C333.287 1823.22 326.047 1841.94 319.022 1860.76C316.386 1867.83 313.949 1874.96 311.359 1882.04C308.998 1888.49 306.618 1894.93 304.413 1901.44C304.434 1901.7 304.776 1901.89 305.178 1901.85C305.58 1901.82 305.889 1901.58 305.868 1901.32C308.178 1894.5 310.46 1887.61 313.207 1880.95C321.25 1861.44 330.765 1842.61 339.466 1823.41C342.332 1817.08 345.041 1810.68 347.713 1804.27C347.672 1802.98 346.04 1801.99 344.067 1802.06Z" fill="#000000" stroke="none"/>
</g>
<g opacity="1">
<path d="M405.234 1798.03C404.743 1798.04 404.223 1798.12 403.7 1798.27C401.607 1798.9 400.242 1800.52 400.651 1801.88C400.729 1806.44 400.626 1811.12 399.633 1815.59C399.002 1818.43 397.653 1821.35 395.624 1823.46C393.322 1825.84 390.256 1827.33 387.176 1828.45C382.098 1830.28 376.842 1831.13 371.491 1831.67C369.878 1831.83 368.263 1831.97 366.648 1832.11C366.423 1832.04 366.148 1832.26 366.033 1832.6C365.918 1832.95 366.008 1833.29 366.233 1833.36C370.316 1833.01 374.37 1832.51 378.438 1832.04C388.474 1830.87 397.973 1828.55 403.614 1819.34C405.092 1816.93 406.16 1814.07 406.855 1811.34C407.829 1807.5 408.101 1803.54 408.231 1799.6C407.925 1798.58 406.706 1797.99 405.234 1798.03Z" fill="#000000" stroke="none"/>
</g>
<g opacity="1">
<path d="M537.461 1640.06C535.223 1640.03 533.142 1641.14 531.504 1642.76C528.401 1645.84 526.771 1650.07 523.349 1652.9C519.286 1656.26 514.742 1656.28 509.877 1655.13C509.657 1654.97 509.283 1655.12 509.042 1655.46C508.802 1655.79 508.786 1656.19 509.005 1656.35C515.614 1657.91 521.775 1656.89 527.097 1652.4C529.205 1650.63 530.976 1648.52 532.895 1646.56C533.407 1646.03 534.29 1644.9 535.087 1644.78C535.428 1644.73 534.958 1644.97 534.971 1644.99C535.013 1645.08 535.619 1645.3 535.725 1645.39C536.231 1645.81 536.675 1646.31 537.106 1646.8C538.991 1648.96 540.49 1651.45 541.932 1653.92C542.714 1655.18 544.92 1655.22 546.857 1654.02C548.795 1652.82 549.731 1650.82 548.949 1649.56C547.615 1647.6 546.233 1645.67 544.617 1643.93C543.727 1642.97 542.745 1642.06 541.62 1641.39C540.819 1640.91 539.94 1640.51 539.034 1640.28C538.504 1640.14 537.978 1640.07 537.461 1640.06Z" fill="#000000" stroke="none"/>
</g>
<g opacity="1">
<path d="M510.724 1646.51C509.836 1646.55 508.822 1646.9 507.894 1647.55C506.038 1648.87 505.226 1650.91 506.08 1652.12C507.834 1653.87 509.623 1655.53 511.64 1656.95C512.586 1657.62 513.549 1658.31 514.718 1658.51C516.786 1658.87 518.929 1658.19 520.996 1658.08C522.346 1658.01 523.749 1658.23 525.091 1658.36C525.315 1658.49 525.654 1658.31 525.847 1657.97C526.041 1657.62 526.016 1657.24 525.791 1657.11C523.641 1656.91 521.596 1656.73 519.495 1656.23C518.774 1656.05 517.785 1655.95 517.206 1655.43C516.369 1654.68 516.296 1653.34 515.781 1652.41C515.382 1651.69 515.115 1650.91 514.702 1650.2C514.134 1649.21 513.467 1648.28 512.801 1647.36C512.374 1646.76 511.612 1646.48 510.724 1646.51Z" fill="#000000" stroke="none"/>
</g>
<g opacity="1">
<path d="M549.366 1646.18C545.556 1647.63 541.646 1649.03 537.624 1649.77C528.89 1651.38 520.017 1651.27 511.183 1651.63C505.022 1651.88 498.962 1652.54 492.903 1653.69C491.81 1653.53 490.718 1654.76 490.462 1656.44C490.206 1658.12 490.884 1659.62 491.977 1659.78C511.115 1655.38 531.029 1654.35 549.515 1647.3C549.716 1647.27 549.845 1647 549.804 1646.69C549.763 1646.38 549.567 1646.15 549.366 1646.18Z" fill="#000000" stroke="none"/>
</g>
</g>
</svg>
