<?xml version="1.0" encoding="UTF-8" standalone="no"?>
<!DOCTYPE svg PUBLIC "-//W3C//DTD SVG 1.1//EN" "http://www.w3.org/Graphics/SVG/1.1/DTD/svg11.dtd">
<!-- Created with Linearity Curve (http://linearity.io/curve) -->
<svg height="2868.0px" stroke-miterlimit="10" style="fill-rule:nonzero;clip-rule:evenodd;stroke-linecap:round;stroke-linejoin:round;" version="1.1" viewBox="0 0 1320 2868" width="1320.0px" xml:space="preserve" xmlns="http://www.w3.org/2000/svg" xmlns:xlink="http://www.w3.org/1999/xlink">
<defs/>
<g id="图层-1">
<g opacity="1">
<path d="M294.77 864.366C291.805 864.334 288.854 864.405 285.901 864.571C277.38 865.048 268.908 866.357 260.658 868.55C211.778 881.544 176.791 922.537 151.956 964.427C147.602 971.771 143.473 979.248 139.585 986.85C134.238 997.302 129.1 1007.87 124.576 1018.71C116.633 1037.74 110.483 1057.49 105.541 1077.5C98.9926 1104.01 94.7036 1131.08 92.2833 1158.27C88.6354 1199.26 89.1342 1240.66 93.6705 1281.55C97.5038 1316.11 104.182 1350.42 114.433 1383.66C131.69 1439.62 159.527 1494.16 203.851 1533.48C205.27 1535.24 208.601 1534.89 211.31 1532.7C214.019 1530.52 215.072 1527.32 213.653 1525.56C169.972 1487.01 142.579 1433.4 125.417 1378.45C113.938 1341.7 106.826 1303.61 103.245 1265.29C99.8401 1228.87 99.5291 1192.14 102.54 1155.68C106.295 1110.19 114.766 1064.49 131.83 1022.01C136.414 1010.59 141.692 999.444 147.226 988.464C150.966 981.043 154.87 973.702 159.051 966.519C182.547 926.154 215.292 885.733 262.66 873.872C269.959 872.044 277.432 870.942 284.946 870.552C295.767 869.99 306.753 870.85 317.375 872.985C343.842 878.304 366.668 894.429 384.916 913.782C398.476 928.165 409.834 944.54 419.55 961.721C433.078 985.641 443.449 1011.32 450.478 1037.88C456.387 1060.21 461.474 1082.75 465.737 1105.44C469.093 1123.31 471.829 1141.28 474.015 1159.32C475.815 1174.17 477.114 1189.07 478.018 1204C483.97 1302.34 468.558 1405.43 414.206 1489.4C408.101 1498.84 401.408 1507.83 394.035 1516.31C388.317 1522.88 382.227 1529.16 375.842 1535.09C370.94 1539.64 365.856 1543.98 360.583 1548.1C330.08 1571.9 290.833 1590.05 251.335 1582.98C245.12 1581.87 239.005 1580.17 233.119 1577.89C224.819 1574.67 216.988 1570.33 209.764 1565.13C198.309 1556.89 188.46 1546.55 179.95 1535.34C164.412 1514.87 153.129 1491.61 142.7 1468.23C142.484 1467.83 141.795 1467.79 141.177 1468.12C140.559 1468.45 140.232 1469.04 140.449 1469.44C150.911 1492.89 162.269 1516.22 177.858 1536.75C186.437 1548.05 196.351 1558.47 207.899 1566.77C215.659 1572.35 224.127 1576.96 233.096 1580.28C238.95 1582.44 244.997 1584.05 251.153 1585.08C290.179 1591.61 328.504 1574.31 359.082 1551.35C364.226 1547.49 369.183 1543.38 373.977 1539.09C380.339 1533.4 386.377 1527.35 392.147 1521.06C399.917 1512.6 407.059 1503.51 413.433 1493.95C422.672 1480.1 430.976 1465.62 438.312 1450.68C483.9 1357.79 490.033 1250.21 477.517 1148.95C475.534 1132.9 473.043 1116.92 470.172 1101.01C466.2 1079 461.338 1057.15 455.777 1035.49C448.882 1008.64 438.642 982.648 425.19 958.4C415.505 940.942 404.153 924.302 390.555 909.644C371.911 889.544 348.484 872.925 321.263 867.254C312.577 865.445 303.664 864.463 294.77 864.366Z" fill="#000000" stroke="none"/>
</g>
<g opacity="1">
<path d="M320.581 838.978C313.475 838.889 306.369 838.947 299.277 839.449C285.818 840.401 272.449 842.739 259.492 846.511C248.16 849.81 237.134 854.221 226.653 859.647C163.021 892.587 124.69 959.428 109.23 1027.42C107.428 1035.35 105.995 1043.34 104.569 1051.34C102.562 1062.6 100.815 1073.91 99.2489 1085.24C93.8068 1124.62 90.8941 1164.37 90.5858 1204.12C90.3756 1231.23 91.0467 1258.36 92.7751 1285.41C96.4321 1342.64 105.192 1399.62 123.096 1454.22C123.293 1454.63 123.973 1454.71 124.603 1454.41C125.232 1454.11 125.577 1453.52 125.379 1453.12C99.2031 1373.29 92.6077 1288.77 92.9163 1205.21C93.0562 1167.33 95.7331 1129.43 100.614 1091.88C102.241 1079.36 104.15 1066.89 106.264 1054.45C107.727 1045.83 109.264 1037.23 111.161 1028.69C126.051 961.721 163.606 895.162 226.111 862.448C235.79 857.383 245.917 853.201 256.362 849.995C269.952 845.824 284.06 843.311 298.241 842.368C305.608 841.878 312.969 841.89 320.346 842.015C343.1 842.398 366.428 845.103 386.708 856.163C395.548 860.984 403.548 867.19 410.649 874.313C417.132 880.815 423.162 887.781 428.705 895.1C458.643 934.621 472.64 982.976 484.474 1030.39C488.327 1045.83 492.001 1061.3 495.02 1076.93C500.383 1104.69 503.995 1132.8 505.355 1161.04C506.654 1188.02 505.895 1215.1 503.189 1241.98C499.969 1273.95 494.043 1305.6 486.381 1336.8C479.554 1364.59 471.926 1392.38 461.027 1418.89C449.727 1446.37 434.707 1472.15 415.993 1495.25C410.638 1501.86 405.029 1508.26 399.185 1514.44C393.413 1520.54 387.402 1526.42 381.67 1532.57C372.37 1542.54 363.49 1552.98 353.068 1561.83C345.727 1568.06 337.633 1573.39 328.75 1577.15C320.56 1580.62 311.797 1582.98 302.949 1583.93C297.106 1584.56 291.194 1584.55 285.364 1583.79C251.597 1579.39 227.673 1551.68 211.045 1524.16C208.329 1519.67 205.78 1515.07 203.3 1510.44C199.881 1504.05 196.715 1497.54 193.719 1490.95C190.169 1483.14 186.8 1475.26 183.573 1467.31C179.319 1456.84 175.299 1446.27 171.355 1435.67C148.491 1374.26 130.604 1310.71 127.663 1244.9C126.06 1209.03 128.855 1173.08 135.055 1137.74C139.173 1114.26 144.877 1091.16 151.204 1068.2C159.755 1037.15 169.434 1006.23 183.596 977.234C190.094 963.93 197.579 951.174 206.007 939.004C206.384 937.265 204.515 935.392 201.841 934.813C199.166 934.234 196.708 935.17 196.332 936.908C185.7 952.31 176.54 968.607 168.836 985.662C157.078 1011.69 148.598 1039.01 140.94 1066.48C133.446 1093.36 126.924 1120.49 122.554 1148.07C117.099 1182.5 114.954 1217.44 116.881 1252.26C120.516 1317.97 138.935 1381.54 162.221 1442.73C166.267 1453.37 170.452 1463.94 174.815 1474.44C178.146 1482.46 181.639 1490.43 185.385 1498.27C188.379 1504.53 191.475 1510.73 194.802 1516.82C197.355 1521.49 200.038 1526.08 202.829 1530.61C220.19 1558.81 245.195 1586.34 279.691 1591.21C286.651 1592.19 293.733 1592.2 300.713 1591.42C310.811 1590.29 320.808 1587.55 330.139 1583.53C342.187 1578.35 352.925 1570.73 362.508 1561.83C371.434 1553.54 379.354 1544.26 387.603 1535.32C393.271 1529.18 399.217 1523.3 404.929 1517.19C410.931 1510.78 416.69 1504.15 422.184 1497.3C439.368 1475.87 453.552 1452.22 464.511 1427.03C477.007 1398.32 485.333 1367.98 492.69 1337.6C505.759 1283.64 513.386 1228.34 511.758 1172.74C510.829 1141.05 507.037 1109.49 501.023 1078.37C497.763 1061.5 493.742 1044.8 489.488 1028.15C477.635 981.772 463.72 934.633 434.944 895.594C429.469 888.167 423.492 881.086 417.076 874.454C410.023 867.163 402.31 860.599 393.582 855.386C371.385 842.129 345.939 839.294 320.581 838.978Z" fill="#000000" stroke="none"/>
</g>
<g opacity="1">
<path d="M510.055 1107.56C507.235 1107.62 504.422 1108.41 501.703 1110.09C500.142 1111.06 498.732 1112.26 497.515 1113.63C495.853 1115.51 494.53 1117.72 493.579 1120.03C490.03 1128.68 489.709 1138.53 490.158 1147.81C490.162 1147.95 490.174 1148.09 490.18 1148.23C490.205 1148.72 490.221 1149.22 490.25 1149.7C490.656 1156.58 491.33 1163.76 493.415 1170.38C494.37 1172.37 497.555 1172.83 500.622 1171.47C501.729 1172.25 502.934 1172.95 504.254 1173.52C506.057 1174.3 507.997 1174.84 509.948 1175.08C519.318 1176.25 526.228 1168.96 529.63 1160.99C533.369 1152.22 534.395 1141.79 533.137 1132.14C533.132 1131.92 533.132 1131.71 533.123 1131.49C532.975 1127.98 532.188 1124.72 530.767 1121.83C529.693 1118.84 528.167 1115.98 525.807 1113.87C524.316 1112.54 522.525 1111.47 520.782 1110.51C517.321 1108.59 513.682 1107.48 510.055 1107.56ZM506.864 1116.31C507.245 1116.31 507.709 1116.37 508.301 1116.48C508.922 1116.6 509.534 1116.77 510.132 1116.97C510.886 1117.22 511.625 1117.53 512.346 1117.86C513.539 1118.42 514.691 1119.06 515.807 1119.76C517.743 1120.96 519.197 1122.44 520.301 1124.45C523.507 1130.31 524.345 1137.13 524.425 1143.71C524.48 1148.28 524.125 1152.91 523.038 1157.37C522.965 1157.66 522.879 1157.96 522.799 1158.26C522.072 1159.39 521.306 1160.49 520.491 1161.54C518.56 1164.02 515.535 1167.23 512.237 1168.88C511.939 1168.82 511.642 1168.78 511.327 1168.7C510.315 1168.47 509.326 1168.15 508.375 1167.73C507.17 1167.2 506.07 1166.55 505.067 1165.79C505.032 1165.48 504.954 1165.18 504.818 1164.9C503.84 1161.95 503.283 1158.85 502.803 1155.79C502.189 1151.88 501.773 1147.93 501.543 1143.98C501.267 1139.23 501.229 1134.44 501.703 1129.7C501.911 1127.61 502.219 1125.52 502.707 1123.48C503.015 1122.19 503.409 1120.94 503.893 1119.7C504.072 1119.24 504.288 1118.79 504.518 1118.36C505.325 1116.83 505.719 1116.29 506.864 1116.31ZM520.434 1164.35C520.099 1164.96 519.742 1165.55 519.334 1166.11C518.134 1167.76 516.866 1168.62 515.372 1168.93C516.867 1167.88 518.242 1166.66 519.509 1165.35C519.826 1165.03 520.13 1164.69 520.434 1164.35Z" fill="#000000" stroke="none"/>
</g>
<g opacity="1">
<path d="M525.668 1157.78C523.327 1157.74 521.401 1158.81 521.165 1160.39C516.584 1168.03 512.798 1176.1 510.204 1184.64C509.573 1186.72 509.079 1188.82 508.578 1190.93C507.974 1193.49 507.271 1196.01 506.795 1198.59C503.238 1217.91 503.132 1237.59 502.332 1257.14C502.208 1260.18 501.896 1263.21 501.655 1266.24C501.217 1271.76 500.697 1277.27 500.12 1282.77C500.221 1283.19 500.823 1283.4 501.466 1283.25C502.11 1283.09 502.551 1282.63 502.45 1282.21C503.301 1274.09 503.878 1265.96 504.599 1257.84C505.311 1249.82 506.531 1241.8 507.705 1233.84C511.389 1208.85 517.492 1183.41 531.241 1161.89C531.511 1160.08 529.473 1158.28 526.691 1157.87C526.344 1157.82 526.002 1157.79 525.668 1157.78Z" fill="#000000" stroke="none"/>
</g>
<g opacity="1">
<path d="M84.8536 1192.48C82.345 1192.43 79.7818 1193.22 77.5835 1194.5C70.9436 1198.39 67.845 1205.56 67.5037 1213.01C67.4156 1214.94 67.5027 1216.86 67.7476 1218.77C67.9165 1220.09 68.1694 1221.39 68.4651 1222.68C68.7034 1223.72 68.9643 1224.76 69.2616 1225.79C70.4003 1229.72 72.728 1236.03 77.6074 1236.37C81.1508 1236.62 84.0887 1233.89 85.9518 1231.17C88.9789 1226.76 90.8076 1221.74 91.5035 1216.5C91.6138 1216.47 91.7242 1216.44 91.8348 1216.4C95.0633 1215.4 97.1513 1212.89 96.4997 1210.79C96.3194 1205.12 95.4254 1197.88 90.4109 1194.28C88.723 1193.07 86.8048 1192.52 84.8536 1192.48ZM80.2705 1200.82C80.3744 1200.79 81.8365 1201.94 81.9791 1202.1C83.6319 1203.93 84.2188 1206.54 84.5463 1208.92C84.7976 1210.74 84.839 1212.58 84.8085 1214.42C85.2795 1215.94 87.0559 1216.82 89.2225 1216.81C88.6701 1221.49 87.2195 1226.23 84.5082 1230C83.9346 1230.8 83.2493 1231.54 82.512 1232.19C82.0019 1232.64 81.4343 1233.06 80.8062 1233.33C77.7155 1234.65 75.9376 1230.14 75.2982 1227.93C75.1368 1227.37 74.997 1226.81 74.8739 1226.24C74.4633 1224.35 74.2185 1222.42 74.0816 1220.48C73.7357 1215.6 74.1653 1210.54 76.24 1206.05C76.7319 1204.99 77.3264 1203.98 78.029 1203.05C78.5627 1202.33 79.3525 1201.11 80.2705 1200.82Z" fill="#000000" stroke="none"/>
</g>
<g opacity="1">
<path d="M518.535 1171.65C515.5 1171.72 513.073 1173.4 513.123 1175.37C500.501 1206.34 492.823 1239.01 488.781 1272.16C486.274 1292.72 485.218 1313.35 484.792 1334.05C484.559 1345.39 484.456 1356.73 484.68 1368.07C485.092 1389 486.097 1409.9 487.095 1430.8C487.869 1446.99 488.754 1463.18 489.005 1479.39C489.735 1526.48 486.479 1573.78 478.257 1620.17C468.971 1672.56 452.536 1724.42 424.441 1769.89C424.388 1770.26 424.783 1770.62 425.34 1770.7C425.897 1770.78 426.391 1770.56 426.445 1770.19C441.159 1746.38 452.671 1720.78 461.685 1694.3C466.184 1681.09 469.958 1667.68 473.464 1654.17C480.599 1626.68 485.629 1598.66 489.118 1570.47C493.203 1537.47 495.12 1504.18 495.11 1470.93C495.103 1447.03 494.08 1423.14 493.743 1399.25C493.527 1383.99 493.586 1368.73 493.762 1353.47C493.858 1345.1 493.997 1336.74 494.379 1328.38C494.964 1315.6 495.909 1302.83 497.151 1290.1C500.991 1250.74 508.914 1211.72 524.115 1175.09C524.065 1173.12 521.57 1171.57 518.535 1171.65Z" fill="#000000" stroke="none"/>
</g>
<g opacity="1">
<path d="M504.628 1306.92C504.347 1306.92 504.073 1306.93 503.809 1306.95C500.707 1307.27 498.092 1309.89 495.665 1311.66C494.652 1312.39 493.577 1313.12 492.638 1313.95C491.897 1314.61 491.091 1315.21 490.469 1315.98C489.587 1317.07 489.067 1318.4 488.396 1319.63C486.929 1322.33 485.486 1325.04 484.045 1327.75C483.957 1329.66 486.269 1331.32 489.207 1331.45C492.145 1331.59 494.598 1330.15 494.686 1328.24C495.744 1325.98 496.808 1323.72 497.842 1321.46C498.254 1320.55 498.741 1319.68 499.08 1318.74C499.106 1318.67 499.147 1318.55 499.156 1318.46C499.35 1318.27 499.531 1318.08 499.725 1317.89C500.897 1316.77 502.002 1315.59 503.161 1314.46C503.341 1314.46 503.521 1314.45 503.7 1314.45C505.974 1314.41 508.249 1314.4 510.523 1314.4C511.089 1314.4 511.653 1314.4 512.218 1314.41C512.321 1314.41 512.423 1314.41 512.526 1314.41C512.538 1314.47 512.55 1314.54 512.564 1314.59C512.706 1315.11 512.849 1315.63 512.992 1316.16C513.134 1316.68 513.279 1317.2 513.419 1317.72C513.979 1319.81 514.455 1321.92 515.066 1324C515.186 1324.4 515.472 1324.78 515.473 1325.21C515.473 1325.57 515.197 1325.88 515.068 1326.22C514.88 1326.71 514.704 1327.21 514.521 1327.71C514.062 1328.96 513.887 1329.44 513.422 1330.69C513.053 1331.68 512.69 1332.68 512.308 1333.67C512.115 1334.17 511.911 1334.66 511.713 1335.16C511.369 1336.02 511.351 1336.03 510.54 1336.33C510.044 1336.51 509.548 1336.69 509.051 1336.87C508.554 1337.05 508.057 1337.23 507.561 1337.41C506.568 1337.77 505.574 1338.14 504.581 1338.5C503.092 1339.04 501.602 1339.58 500.113 1340.12C499.799 1340.15 499.585 1340.57 499.633 1341.05C499.682 1341.53 499.975 1341.9 500.288 1341.87C503.268 1340.78 506.247 1339.7 509.227 1338.62C510.535 1338.14 512.226 1337.76 513.124 1336.62C513.713 1335.86 514.221 1334.49 514.636 1333.69C515.419 1332.19 516.23 1330.71 517.033 1329.23C517.57 1328.23 518.136 1327.25 518.648 1326.25C518.978 1325.6 519.452 1324.99 519.597 1324.28C519.733 1323.61 519.511 1322.92 519.463 1322.24C519.343 1320.56 519.201 1318.87 519.072 1317.19C519.028 1316.63 518.984 1316.07 518.944 1315.51C518.904 1314.95 518.867 1314.39 518.829 1313.82C518.757 1312.77 518.859 1310.94 518.175 1310.02C517.279 1308.82 515.091 1308.78 513.713 1308.54C513.196 1308.45 512.68 1308.36 512.164 1308.27C511.648 1308.17 511.134 1308.08 510.618 1307.98C508.921 1307.67 506.598 1306.96 504.628 1306.92ZM512.332 1313.8C512.335 1313.8 512.34 1313.8 512.348 1313.81C512.397 1313.89 512.429 1313.99 512.455 1314.09C512.391 1314 512.315 1313.8 512.332 1313.8ZM501.244 1314.48C501.305 1314.48 501.386 1314.48 501.426 1314.48C501.612 1314.48 501.798 1314.49 501.983 1314.48C502.022 1314.48 502.06 1314.48 502.098 1314.48C501.79 1314.55 501.482 1314.56 501.183 1314.49C501.143 1314.48 501.183 1314.48 501.244 1314.48Z" fill="#000000" stroke="none"/>
</g>
<g opacity="1">
<path d="M507.737 1336.36C504.719 1336.39 502.296 1338.02 502.319 1339.98C488.671 1372.26 491.714 1407.42 494.277 1441.47C495.114 1452.59 495.728 1463.75 495.979 1474.9C496.783 1510.64 496.621 1546.45 493.198 1582.07C491.086 1604.05 487.701 1626.13 481.932 1647.46C475.147 1672.56 465.026 1696.76 451.513 1718.98C451.463 1719.34 451.877 1719.7 452.436 1719.78C452.996 1719.86 453.488 1719.62 453.539 1719.25C462.785 1704.05 470.442 1687.99 476.539 1671.28C479.431 1663.35 481.866 1655.29 484.221 1647.19C493.679 1614.64 498.456 1580.96 501.121 1547.24C503.159 1521.45 503.986 1495.56 504.477 1469.7C504.676 1459.19 504.179 1448.75 503.77 1438.26C503.254 1425.06 502.739 1411.82 502.871 1398.61C503.07 1378.56 505.194 1358.39 513.25 1339.85C513.227 1337.88 510.754 1336.32 507.737 1336.36Z" fill="#000000" stroke="none"/>
</g>
<g opacity="1">
<path d="M80.5391 1223.48C80.1637 1223.47 79.7807 1223.49 79.3887 1223.54C76.252 1223.91 73.9039 1225.86 74.143 1227.9C71.8499 1236.25 70.158 1244.73 69.237 1253.35C68.5892 1259.41 68.5147 1265.45 68.421 1271.54C68.2996 1279.43 68.8151 1287.27 69.531 1295.12C70.7161 1308.13 72.5755 1321.07 74.9489 1333.91C76.1644 1340.49 77.6182 1347.01 78.9224 1353.57C80.9959 1363.99 82.9204 1374.43 85.1664 1384.83C85.3432 1385.24 86.0033 1385.36 86.6413 1385.08C87.2792 1384.81 87.6543 1384.25 87.4775 1383.84C85.2399 1373.48 82.898 1363.09 81.2487 1352.62C79.9271 1344.24 79.088 1335.73 78.3294 1327.28C76.786 1310.08 76.2692 1292.86 77.3816 1275.62C77.5613 1272.84 77.6285 1270.04 77.8834 1267.26C79.142 1253.54 81.5161 1239.76 85.5009 1226.57C85.2917 1224.78 83.1675 1223.52 80.5391 1223.48Z" fill="#000000" stroke="none"/>
</g>
<g opacity="1">
<path d="M99.0248 1366.53C90.3522 1366.73 81.8523 1373.81 78.6613 1381.53C75.546 1389.06 78.5118 1398.84 82.5801 1405.46C83.9169 1407.63 85.4964 1409.69 87.3749 1411.43C88.6018 1412.57 89.9761 1413.57 91.5147 1414.24C92.4972 1414.67 93.5439 1414.95 94.6156 1415.02C96.2935 1415.12 97.9625 1414.68 99.4072 1413.83C104.51 1410.82 105.616 1404.09 106.433 1398.76C106.643 1397.4 106.854 1396.04 107.017 1394.66C107.233 1392.85 107.407 1391.03 107.596 1389.21C107.755 1387.69 107.825 1386.09 108.174 1384.6C108.373 1383.74 108.732 1382.86 109.047 1381.97C109.465 1381.77 109.882 1381.54 110.289 1381.27C113.21 1379.32 114.549 1376.19 113.279 1374.29C111.042 1371.44 108.427 1368.91 104.994 1367.57C103.037 1366.81 101.026 1366.49 99.0248 1366.53ZM94.9269 1375.74C95.8468 1375.74 96.8222 1376.02 97.9181 1376.64C99.9261 1377.77 101.382 1379.52 102.7 1381.37C103.447 1382.49 104.934 1382.93 106.624 1382.7C106.514 1382.99 106.401 1383.28 106.309 1383.54C105.905 1384.71 105.728 1385.81 105.577 1387.04C105.353 1388.86 105.172 1390.68 104.983 1392.5C104.796 1394.3 104.603 1396.1 104.333 1397.89C104.128 1399.24 103.831 1400.55 103.463 1401.87C103.213 1402.77 102.931 1403.65 102.614 1404.53C101.567 1407.42 99.5032 1412.82 95.5239 1411.02C94.9548 1410.77 94.4075 1410.43 93.9234 1410.03C93.1816 1409.43 92.5148 1408.78 91.8987 1408.05C86.9789 1402.19 84.3942 1392.21 86.1891 1384.75C86.5212 1383.37 86.9769 1381.88 87.704 1380.64C88.3831 1379.49 89.4534 1378.59 90.4806 1377.76C92.0141 1376.53 93.3938 1375.75 94.9269 1375.74Z" fill="#000000" stroke="none"/>
</g>
<g opacity="1">
<path d="M98.2136 1407.11C97.1367 1407.03 95.9266 1407.19 94.7186 1407.63C91.4971 1408.78 89.4935 1411.4 90.2412 1413.5C91.9899 1431.74 94.3627 1449.9 97.4898 1467.96C99.2357 1478.04 101.269 1488.05 103.332 1498.07C104.592 1504.19 105.735 1510.33 107.055 1516.44C114.806 1552.29 123.123 1588 128.677 1624.28C131.062 1639.86 133.114 1655.58 134.085 1671.32C135.429 1693.1 134.9 1715.02 132.823 1736.74C132.926 1737.16 133.534 1737.38 134.178 1737.22C134.822 1737.06 135.263 1736.58 135.16 1736.16C136.375 1723.46 137.053 1710.73 137.114 1697.96C137.159 1688.81 136.83 1679.68 136.422 1670.53C135.656 1653.41 134.369 1636.35 132.379 1619.33C128.206 1583.63 121.838 1548.2 115.937 1512.77C114.907 1506.58 113.741 1500.42 112.752 1494.23C108.255 1466.05 104.232 1437.77 101.905 1409.33C101.438 1408.02 100.008 1407.24 98.2136 1407.11Z" fill="#000000" stroke="none"/>
</g>
<g opacity="1">
<path d="M138.944 1710.03C136.01 1710.11 133.193 1711.28 130.807 1712.94C125.47 1716.66 121.751 1722.96 120.061 1729.16C119.329 1731.84 118.963 1734.63 119.568 1737.37C120.323 1739.08 122.719 1739.74 125.323 1739.13C126.643 1743.32 128.2 1747.51 130.576 1751.17C131.65 1752.83 133.091 1754.79 135.027 1755.49C139.763 1757.18 143.451 1750.98 145.002 1747.59C147.861 1741.34 149.382 1734.21 149.84 1727.38C150.04 1724.38 150.122 1721.1 149.2 1718.19C147.752 1713.62 143.963 1709.88 138.944 1710.03ZM136.314 1717.8C137.435 1717.84 139.127 1719.34 139.784 1720.01C140.42 1720.65 141.064 1721.36 141.494 1722.17C142.108 1723.32 142.468 1724.65 142.697 1725.93C143.936 1732.85 143.36 1741.06 141.17 1747.73C140.439 1749.96 138.969 1754.71 135.756 1752.96C135.361 1752.75 134.987 1752.48 134.647 1752.18C134.216 1751.81 133.854 1751.38 133.509 1750.92C132.754 1749.94 132.116 1748.86 131.537 1747.76C130.76 1746.29 130.087 1744.76 129.472 1743.22C128.817 1741.57 128.234 1739.9 127.686 1738.22C130.422 1736.73 131.924 1734.19 131.082 1732.29C130.04 1728.66 132.239 1723.5 134.142 1720.47C134.603 1719.74 135.124 1719.05 135.707 1718.41C135.848 1718.25 135.994 1717.83 136.099 1717.82C136.168 1717.8 136.24 1717.8 136.314 1717.8Z" fill="#000000" stroke="none"/>
</g>
<g opacity="1">
<path d="M118.565 1737.31C110.223 1737.4 101.654 1742.24 99.0595 1750.36C97.2878 1755.91 99.4481 1761.44 102.681 1765.97C103.941 1767.87 107.336 1767.85 110.269 1765.91C113.202 1763.97 114.558 1760.86 113.298 1758.95C111.468 1756.5 108.973 1752.36 110.15 1749.12C110.883 1747.1 112.794 1746.53 114.828 1746.46C117.954 1746.35 121.014 1747.73 123.132 1750.01C125.462 1752.51 126.446 1755.81 126.918 1759.12C127.55 1763.56 127.371 1768.08 126.175 1772.41C121.823 1788.16 109.461 1799.7 101.098 1813.26C95.2376 1822.76 91.8221 1833.09 95.0267 1844.19C96.1967 1848.24 98.0848 1852.06 100.36 1855.6C103.146 1859.94 106.438 1864.14 110.437 1867.43C113.086 1869.61 116.165 1871.4 119.568 1872.05C128.943 1873.83 136.622 1866.17 138.83 1857.64C140.302 1851.95 139.241 1844.94 132.401 1843.83C131.14 1843.63 129.849 1843.65 128.585 1843.8C125.873 1844.13 123.303 1845.06 120.806 1846.13C120.507 1846.2 120.347 1846.63 120.448 1847.09C120.55 1847.55 120.874 1847.87 121.173 1847.8C123.377 1846.86 125.646 1846.01 128.041 1845.73C129.085 1845.6 130.149 1845.58 131.189 1845.75C136.594 1846.62 137.689 1852.15 136.814 1856.76C135.583 1863.25 130.306 1870.77 122.925 1870.29C121.543 1870.2 120.191 1869.85 118.914 1869.33C116.365 1868.27 114.126 1866.56 112.17 1864.64C109.224 1861.75 106.805 1858.32 104.689 1854.79C101.95 1850.21 99.7911 1845.22 98.9844 1839.92C97.2774 1828.71 102.448 1819.2 108.969 1810.54C117.399 1799.34 127.866 1789.26 133.462 1776.19C136.227 1769.73 137.543 1762.43 137.048 1755.42C136.768 1751.46 135.74 1747.53 133.382 1744.27C129.874 1739.42 124.272 1737.25 118.565 1737.31Z" fill="#000000" stroke="none"/>
</g>
<g opacity="1">
<path d="M106.8 1800.32C104.97 1800.39 103.504 1801.21 103.201 1802.5C86.0377 1827.12 63.2894 1852.56 64.5016 1884.55C64.6842 1889.37 65.425 1894.17 66.647 1898.83C69.2361 1908.71 75.4056 1918.54 83.3149 1925.03C87.2213 1928.23 91.9817 1930.77 97.1373 1930.86C99.8642 1930.91 102.539 1930.26 104.986 1929.07C107.091 1928.05 109.125 1926.78 110.771 1925.1C111.675 1924.18 112.455 1923.13 113.044 1921.98C116.966 1914.32 110.777 1905.33 105.514 1900.05C104.562 1899.09 103.951 1898.55 102.935 1897.68C101.744 1896.65 100.469 1895.73 99.1476 1894.87C98.8437 1894.55 98.1909 1894.67 97.69 1895.13C97.1891 1895.6 97.0258 1896.24 97.3297 1896.57C99.0799 1897.7 100.715 1898.97 102.247 1900.38C103.328 1901.37 104.354 1902.43 105.322 1903.53C109.609 1908.43 114.71 1916.82 110.169 1923.1C109.548 1923.96 108.776 1924.71 107.938 1925.36C106.879 1926.18 105.721 1926.84 104.495 1927.38C102.817 1928.11 101.022 1928.52 99.1885 1928.51C93.9331 1928.5 89.2755 1925.31 85.6896 1921.73C78.6067 1914.67 73.731 1905.03 72.0965 1895.19C71.4001 1891 71.0982 1886.73 71.2367 1882.48C71.7915 1865.47 79.8947 1850.06 89.4154 1836.38C96.9071 1825.62 105.094 1815.37 112.778 1804.75C113.181 1803.03 111.365 1801.14 108.72 1800.52C108.059 1800.36 107.41 1800.3 106.8 1800.32Z" fill="#000000" stroke="none"/>
</g>
<g opacity="1">
<path d="M162.739 1712.09C158.348 1712.17 154.032 1713.61 150.329 1716.8C149.125 1717.84 148.075 1719.04 147.199 1720.36C146.162 1721.93 145.385 1723.65 144.871 1725.46C143.731 1729.47 143.883 1733.6 144.441 1737.69C145.274 1739.77 148.548 1740.43 151.753 1739.14C154.958 1737.86 156.88 1735.13 156.047 1733.05C155.539 1730.5 155.156 1727.89 155.402 1725.28C155.528 1723.94 156.046 1721.2 157.21 1720.24C157.715 1719.82 158.441 1719.63 159.053 1719.44C161.288 1718.74 163.67 1718.7 165.981 1718.97C167.486 1719.15 168.975 1719.48 170.427 1719.92C171.896 1720.36 173.338 1720.91 174.712 1721.59C179.377 1723.92 185.474 1729.02 182.812 1734.91C182.453 1735.7 181.908 1736.38 181.317 1737.02C180.374 1738.03 179.277 1738.88 178.121 1739.63C175.812 1741.13 173.287 1742.21 170.721 1743.17C170.411 1743.21 170.208 1743.63 170.268 1744.11C170.328 1744.59 170.628 1744.94 170.939 1744.9C174.423 1743.59 177.864 1742.06 180.815 1739.75C182.27 1738.61 183.516 1737.3 184.546 1735.77C185.268 1734.69 185.867 1733.57 186.203 1732.31C187.792 1726.35 183.384 1720.92 178.897 1717.61C174.154 1714.1 168.385 1711.98 162.739 1712.09Z" fill="#000000" stroke="none"/>
</g>
<g opacity="1">
<path d="M158.472 1732.74C157.153 1732.69 155.836 1732.86 154.556 1733.18C152.874 1733.59 151.258 1734.26 149.733 1735.07C147.318 1736.37 145.121 1738.06 143.147 1739.95C132.476 1750.2 127.297 1766.74 131.971 1781C133.05 1784.29 134.634 1787.39 136.595 1790.24C138.185 1792.56 140.009 1794.68 142.119 1796.53C147.807 1801.54 155.015 1804.23 162.21 1806.23C168.66 1808.02 175.327 1809.38 181.439 1812.19C187.636 1815.05 192.923 1819.59 197.46 1824.63C207.373 1835.62 214.89 1849.82 217.494 1864.46C218.795 1871.77 218.848 1879.63 216.119 1886.63C213.722 1892.79 209.854 1898.87 204.863 1903.21C202.903 1904.92 200.724 1906.38 198.362 1907.47C186.412 1913 172.337 1908.29 163.255 1899.57C162.203 1898.56 161.207 1897.48 160.293 1896.34C156.061 1891.08 152.183 1882.12 158.968 1877.13C159.941 1876.41 161.032 1875.86 162.153 1875.42C164.732 1874.41 167.507 1873.93 170.258 1873.7C174.24 1873.37 178.238 1873.56 182.21 1873.93C182.556 1874.13 183.077 1873.85 183.374 1873.32C183.671 1872.78 183.635 1872.2 183.288 1872C178.907 1871.59 174.486 1871.39 170.098 1871.84C167.305 1872.13 164.51 1872.68 161.891 1873.71C160.128 1874.4 158.448 1875.33 157.005 1876.56C156.01 1877.41 155.138 1878.41 154.465 1879.53C149.834 1887.28 156.451 1896.79 162.108 1901.91C172.288 1911.13 187.508 1915.33 200.269 1909.05C204.158 1907.14 207.61 1904.43 210.559 1901.27C215.281 1896.2 219.309 1889.72 221.341 1883.09C223.772 1875.15 223.486 1866.6 221.889 1858.53C219.023 1844.06 211.991 1829.92 202.329 1818.8C197.993 1813.81 192.974 1809.31 187.073 1806.25C180.66 1802.93 173.574 1801.15 166.765 1798.85C158.673 1796.12 151.211 1792.97 146.355 1785.56C140.807 1777.1 139.409 1766.71 142.593 1757.1C144.097 1752.57 146.535 1748.16 149.95 1744.78C150.704 1744.04 151.518 1743.33 152.422 1742.77C153.88 1741.87 154.564 1742.06 155.395 1743.76C155.603 1744.18 155.756 1744.63 155.881 1745.09C156.106 1745.92 156.233 1746.78 156.297 1747.64C156.384 1748.79 156.367 1749.95 156.297 1751.1C156.154 1753.46 155.761 1755.79 155.304 1758.11C155.688 1760.18 158.586 1761.39 161.776 1760.8C164.967 1760.21 167.24 1758.04 166.856 1755.97C167.115 1754.56 167.36 1753.16 167.541 1751.74C168.332 1745.55 168.618 1735.47 161.114 1733.17C160.259 1732.91 159.364 1732.77 158.472 1732.74Z" fill="#000000" stroke="none"/>
</g>
<g opacity="1">
<path d="M131.278 1757.2C131.006 1757.17 130.681 1757.23 130.368 1757.39C129.744 1757.71 129.403 1758.29 129.61 1758.7C133.231 1768.19 137.472 1777.41 143.147 1785.86C149.922 1795.95 158.533 1804.68 167.926 1812.34C171.4 1815.17 174.976 1817.87 178.548 1820.58C181.634 1822.92 184.724 1825.25 187.773 1827.64C201.931 1838.71 217.875 1852.61 219.656 1871.72C219.93 1874.67 219.86 1877.65 219.484 1880.59C218.86 1885.47 217.472 1890.33 215.306 1894.75C213.849 1897.73 212 1900.52 209.698 1902.91C197.58 1915.49 176.364 1912.2 162.677 1904.19C161.308 1903.38 159.972 1902.51 158.696 1901.57C157.796 1900.91 156.926 1900.2 156.093 1899.46C152.157 1895.92 147.246 1889.37 150.652 1883.95C152.816 1880.51 157.164 1878.65 160.77 1877.2C162.291 1876.93 163.177 1874.81 162.75 1872.47C162.323 1870.13 160.742 1868.46 159.221 1868.73C149.381 1872.81 136.525 1880.99 138.413 1893.41C138.635 1894.88 139.078 1896.31 139.676 1897.66C140.605 1899.76 141.911 1901.69 143.412 1903.42C145.634 1905.99 148.281 1908.16 151.104 1910.03C171.016 1923.23 202.631 1923.37 217.712 1902.75C220.655 1898.73 222.769 1894.17 224.182 1889.4C225.536 1884.82 226.313 1880.04 226.302 1875.27C226.271 1861.51 219.36 1850.08 209.875 1840.62C200.435 1831.21 189.144 1823.95 178.268 1816.34C173.249 1812.83 168.142 1809.33 163.54 1805.27C154.957 1797.71 147.496 1788.71 141.739 1778.82C137.791 1772.04 134.664 1764.86 131.87 1757.55C131.767 1757.34 131.55 1757.23 131.278 1757.2Z" fill="#000000" stroke="none"/>
</g>
<g opacity="1">
<path d="M119.753 1796.47C119.404 1796.45 119.109 1796.57 119.023 1796.81C114.647 1802.07 110.975 1807.92 107.536 1813.82C103.08 1821.48 99.1101 1829.4 95.4674 1837.47C89.5422 1850.6 84.1305 1863.95 80.8728 1878.02C79.2344 1885.1 78.1136 1892.34 78.0202 1899.62C77.851 1912.78 81.3968 1926.03 92.9104 1933.71C95.7572 1935.61 98.8826 1937.03 102.122 1938.11C105.414 1939.21 108.927 1939.68 112.386 1939.33C115.201 1939.04 117.93 1938.19 120.438 1936.88C134.012 1929.82 137.993 1912.49 131.674 1899.18C126.266 1887.79 115.202 1882.41 103.107 1881.14C101.375 1880.18 98.7593 1881.55 97.2677 1884.22C95.7761 1886.88 95.9739 1889.83 97.7066 1890.8C101.157 1891.1 104.541 1891.73 107.774 1893C115.023 1895.87 120.707 1901.79 122.942 1909.29C123.366 1910.72 123.681 1912.18 123.86 1913.66C124.582 1919.62 123.144 1929.24 116.426 1931.4C115.229 1931.78 113.977 1931.97 112.722 1931.99C109.341 1932.06 105.98 1931.15 102.861 1929.91C100.643 1929.03 98.5153 1927.9 96.5691 1926.52C85.9301 1918.95 83.2481 1905.24 83.5508 1892.95C83.8033 1882.69 85.8835 1872.51 88.665 1862.67C92.266 1849.92 97.2029 1837.66 103.179 1825.86C108.142 1816.05 113.74 1805.93 120.792 1797.45C120.906 1797.13 120.605 1796.73 120.116 1796.55C119.993 1796.51 119.87 1796.48 119.753 1796.47Z" fill="#000000" stroke="none"/>
</g>
<g opacity="1">
<path d="M130.862 1772.35C130.104 1772.37 129.302 1772.5 128.495 1772.74C125.266 1773.73 123.169 1776.23 123.812 1778.33C124.019 1790.78 124.662 1803.18 126.807 1815.46C127.567 1819.8 128.304 1824.07 129.518 1828.32C130.691 1832.43 132.089 1836.51 134.04 1840.33C135.171 1842.53 136.506 1844.69 138.322 1846.4C139.379 1847.4 140.595 1848.24 141.948 1848.79C144.117 1849.66 146.514 1849.69 148.753 1849.07C155.222 1847.28 159.858 1840.89 161.329 1834.58C161.903 1832.12 162.2 1829.21 161.191 1826.82C160.288 1824.69 158.471 1823.07 156.449 1822.01C151.129 1819.23 143.624 1819.7 139.847 1824.79C139.171 1825.7 138.669 1826.68 138.293 1827.69C138.196 1827.17 138.09 1826.65 138.003 1826.13C137.535 1823.35 137.267 1820.55 136.924 1817.75C136.685 1815.8 136.404 1813.87 136.271 1811.91C136.066 1808.89 136.01 1805.86 135.884 1802.83C135.496 1793.48 135.367 1784.12 135.504 1774.75C135.022 1773.18 133.137 1772.28 130.862 1772.35ZM147.908 1822.28C150.986 1822.16 154.269 1823.44 156.395 1825.79C160.384 1830.18 157.127 1837.83 153.755 1841.65C151.832 1843.83 149.012 1845.79 146.101 1844.24C143.917 1843.08 142.522 1840.8 141.517 1838.62C140.855 1837.19 140.303 1835.7 139.834 1834.19C139.616 1831.81 139.78 1829.44 140.648 1827.25C141.956 1823.95 144.829 1822.41 147.908 1822.28Z" fill="#000000" stroke="none"/>
</g>
<g opacity="1">
<path d="M146.738 1807.28C146.551 1807.27 146.39 1807.32 146.298 1807.45C143.227 1810.14 140.414 1813.09 138.087 1816.46C133.026 1823.78 130.331 1833.28 131.929 1842.15C133.387 1850.25 139.137 1858.74 148.3 1858.2C149.932 1858.1 151.536 1857.72 153.054 1857.12C158.536 1854.95 162.752 1850.22 165.69 1845.24C168.013 1841.3 169.725 1836.63 169.375 1832C168.705 1823.13 161.438 1817.13 152.622 1818.09C144.856 1818.95 138.759 1823.96 134.573 1830.2C135.786 1821.84 141.109 1814.25 147.689 1808.48C147.873 1808.23 147.711 1807.79 147.327 1807.51C147.135 1807.37 146.924 1807.29 146.738 1807.28ZM151.487 1826.93C154.728 1827.05 157.922 1829.39 159.301 1832.21C160.171 1833.98 160.443 1836.09 160.416 1838.05C160.397 1839.38 160.186 1840.73 159.809 1842.01C158.213 1847.43 153.732 1854.58 147.158 1853.45C141.514 1852.49 137.563 1847.12 135.76 1842.06C135.29 1840.73 134.948 1839.42 134.71 1838.11C135.446 1838.37 136.282 1838.53 137.174 1838.55C140.149 1838.61 142.593 1837.09 142.631 1835.16C143.413 1833.41 144.3 1831.71 145.491 1830.21C146.473 1828.96 147.715 1827.73 149.258 1827.23C149.989 1827 150.739 1826.91 151.487 1826.93Z" fill="#000000" stroke="none"/>
</g>
<g opacity="1">
<path d="M137.773 1791.73C136.844 1791.73 135.838 1791.9 134.831 1792.25C131.607 1793.38 129.59 1795.99 130.324 1798.09C130.628 1799.19 131.007 1800.29 131.596 1801.26C132.767 1803.2 134.628 1805.04 135.515 1807.12C136.003 1808.27 135.982 1809.32 136.076 1810.54C136.222 1810.96 136.864 1811.11 137.509 1810.89C138.153 1810.66 138.557 1810.14 138.41 1809.72C138.304 1808.34 138.145 1807.49 138.43 1806.1C138.717 1804.7 139.278 1803.36 139.759 1802.02C140.479 1800 141.409 1797.99 141.81 1795.87C141.926 1795.26 141.934 1794.62 141.996 1794C141.491 1792.56 139.817 1791.74 137.773 1791.73Z" fill="#000000" stroke="none"/>
</g>
<g opacity="1">
<path d="M477.189 1666.33C477.152 1666.34 477.116 1666.35 477.082 1666.37C474.293 1667.93 471.551 1669.62 469.036 1671.59C468.994 1671.62 468.95 1671.64 468.908 1671.67C460.784 1676.81 457.088 1685 458.652 1694.4C459.261 1695.89 461.119 1696.63 463.298 1696.45C464.792 1698.19 466.666 1699.7 468.792 1700.88C476.333 1705.08 486.212 1705 492.897 1699.16C495.395 1696.97 497.243 1694.14 498.376 1691.03C499.55 1687.81 500.168 1684.23 499.759 1680.81C499.576 1679.28 499.178 1677.77 498.546 1676.37C494.989 1668.46 484.901 1666.49 477.116 1668.26C477.349 1668.12 477.585 1667.99 477.812 1667.86C478.08 1667.73 478.133 1667.29 477.932 1666.88C477.756 1666.52 477.444 1666.3 477.189 1666.33ZM480.229 1675.89C481.592 1675.85 482.927 1676.01 484.111 1676.33C485.459 1676.69 486.753 1677.37 487.886 1678.18C492.568 1681.53 493.194 1687.84 491.33 1692.97C490.567 1695.07 489.251 1696.92 487.328 1698.1C481.476 1701.67 472.384 1699.44 467.107 1695.25C469.614 1693.82 470.986 1691.49 470.239 1689.66C469.824 1687.63 469.624 1685.56 470.013 1683.51C470.328 1681.85 471.015 1680.25 472.173 1679C474.099 1676.93 477.23 1675.96 480.229 1675.89Z" fill="#000000" stroke="none"/>
</g>
<g opacity="1">
<path d="M489.516 1744.18C465.998 1748.93 442.537 1753.91 419.079 1758.95C403.14 1762.37 387.184 1765.66 371.267 1769.18C317.401 1781.1 263.729 1794.18 210.67 1809.31C186.333 1816.25 162.181 1823.82 138.126 1831.68C136.529 1831.75 135.323 1833.8 135.432 1836.26C135.541 1838.71 136.928 1840.65 138.525 1840.58C168.422 1830.52 198.472 1820.86 228.651 1811.67C235.282 1809.65 241.953 1807.76 248.594 1805.77C304.208 1789.13 360.381 1774.2 416.972 1761.24C440.951 1755.75 465.095 1750.93 489.206 1746.07C489.544 1746.12 489.896 1745.74 489.982 1745.22C490.068 1744.7 489.854 1744.24 489.516 1744.18Z" fill="#000000" stroke="none"/>
</g>
<g opacity="1">
<path d="M285.479 1743.25C283.983 1743.25 282.484 1743.34 280.982 1743.52C269.709 1744.91 260.102 1751.87 251.825 1759.2C238.932 1770.62 228.168 1784.27 215.054 1795.45C211.295 1798.66 207.287 1801.69 202.834 1803.87C200.464 1805.03 197.981 1805.91 195.356 1806.26C181.189 1808.15 172.665 1793.4 167.615 1782.43C167.396 1782.03 166.715 1781.98 166.099 1782.32C165.482 1782.66 165.16 1783.25 165.379 1783.65C167.639 1788.56 170.188 1793.37 173.492 1797.66C175.347 1800.07 177.45 1802.33 179.89 1804.15C181.592 1805.43 183.457 1806.49 185.457 1807.23C195.184 1810.79 205.425 1805.41 213.219 1799.86C218.523 1796.09 223.413 1791.75 228.185 1787.34C236.117 1780 243.698 1772.27 251.895 1765.22C256.33 1761.4 260.959 1757.7 266.06 1754.8C268.966 1753.15 272.078 1751.73 275.364 1751.04C278.461 1750.4 281.704 1750.49 284.823 1750.91C291.836 1751.85 298.346 1754.61 304.036 1758.8C305.736 1760.05 307.347 1761.43 308.768 1763C309.696 1764.02 310.553 1765.12 311.249 1766.31C311.73 1767.14 312.133 1768.01 312.385 1768.93C312.515 1769.41 312.607 1769.91 312.625 1770.4C312.712 1772.79 310.735 1773.51 308.728 1774.19C306.113 1775.07 303.351 1775.52 300.615 1775.82C299.532 1775.94 299.183 1775.96 298.074 1776.05C296.342 1775.49 294.24 1777.19 293.377 1779.86C292.513 1782.52 293.215 1785.14 294.947 1785.7C299.847 1785.21 304.75 1784.45 309.403 1782.79C312.32 1781.75 315.143 1780.35 317.582 1778.42C319.003 1777.3 320.294 1775.99 321.333 1774.51C322.047 1773.49 322.637 1772.38 323.049 1771.21C325.23 1764.98 321.413 1759.01 316.947 1754.95C311.798 1750.26 305.381 1747.22 298.744 1745.28C294.406 1744.01 289.964 1743.24 285.479 1743.25Z" fill="#000000" stroke="none"/>
</g>
<g opacity="1">
<path d="M311.781 1758.43C311.704 1758.43 311.624 1758.44 311.545 1758.46C310.908 1758.57 310.451 1759 310.525 1759.41C309.983 1762.12 309.442 1764.83 308.9 1767.54C308.73 1768.39 308.734 1769.29 308.403 1770.1C307.978 1771.12 307.224 1771.98 306.616 1772.91C305.973 1773.9 305.327 1774.89 304.679 1775.87C303.711 1777.34 302.742 1778.8 301.774 1780.27C301.336 1780.35 300.91 1780.56 300.474 1780.67C299.659 1780.87 298.842 1781.06 298.025 1781.25C297.378 1781.4 296.73 1781.56 296.082 1781.71C296.078 1781.7 296.07 1781.69 296.066 1781.68C295.859 1781.18 295.647 1780.68 295.445 1780.19C294.641 1778.21 293.689 1776.33 292.847 1774.37C292.671 1773.96 292.514 1773.55 292.352 1773.13C292.59 1772.72 292.827 1772.31 293.06 1771.89C293.314 1771.45 293.56 1770.99 293.81 1770.54C295.056 1768.3 296.279 1766.04 297.497 1763.79C297.585 1761.88 295.274 1760.22 292.335 1760.08C289.397 1759.95 286.945 1761.39 286.857 1763.3C285.61 1766 284.36 1768.71 283.168 1771.44C282.506 1772.96 281.521 1774.71 281.77 1776.4C282.016 1778.06 284 1779.84 284.879 1781.06C285.819 1782.37 286.793 1783.58 287.825 1784.82C288.558 1785.7 289.514 1787.23 290.575 1787.74C292.835 1788.82 296.284 1786.76 298.246 1785.92C298.651 1785.75 299.055 1785.57 299.46 1785.4C301.116 1784.69 303.453 1784 304.716 1782.65C305.586 1781.71 306.046 1780.29 306.543 1779.14C306.977 1778.14 307.41 1777.14 307.844 1776.13C308.496 1774.63 309.128 1773.11 309.821 1771.63C310.078 1771.08 310.419 1770.56 310.622 1769.99C311.081 1768.69 311.209 1767.12 311.478 1765.77C311.93 1763.52 312.381 1761.26 312.832 1759C312.768 1758.64 312.319 1758.41 311.781 1758.43ZM291.967 1772.17C292.065 1772.15 292.107 1772.33 292.121 1772.55C292.101 1772.5 292.082 1772.45 292.06 1772.4C292.028 1772.32 291.884 1772.18 291.967 1772.17ZM301.5 1780.71C301.424 1780.83 301.344 1780.95 301.252 1781.05C301.167 1781.14 301.373 1780.83 301.465 1780.74C301.476 1780.73 301.488 1780.72 301.5 1780.71ZM294.766 1782.02C294.628 1782.06 294.49 1782.09 294.352 1782.12C294.228 1782.15 294.104 1782.18 293.979 1782.21C293.912 1782.22 293.718 1782.29 293.779 1782.26C294.05 1782.11 294.408 1782.04 294.766 1782.02Z" fill="#000000" stroke="none"/>
</g>
<g opacity="1">
<path d="M485.749 1708.71C485.556 1708.73 485.401 1708.8 485.325 1708.95C477.589 1716.81 471.335 1726 463.377 1733.66C458.813 1738.06 453.434 1742.46 447.096 1743.85C444.54 1744.42 441.838 1744.42 439.237 1744.25C430.4 1743.69 422.071 1740.32 414.212 1736.46C403.811 1731.34 394.037 1725 383.478 1720.19C371.329 1714.66 358.616 1711.76 345.794 1717.05C341.888 1718.66 338.253 1720.89 334.932 1723.5C330.693 1726.82 326.562 1730.71 323.767 1735.36C320.293 1741.14 318.5 1747.76 317.904 1754.44C317.579 1758.08 317.612 1761.83 318.36 1765.42C318.784 1767.46 319.442 1769.48 320.478 1771.29C323.669 1776.87 329.462 1778.59 335.567 1777.66C338.222 1777.25 340.801 1776.41 343.258 1775.34C346.642 1773.86 349.851 1771.94 352.59 1769.45C357.789 1764.72 362.566 1755.43 356.557 1749.36C355.916 1748.71 355.19 1748.17 354.39 1747.73C353.171 1747.07 351.82 1746.67 350.445 1746.5C343.281 1745.63 336.581 1750.06 331.669 1754.82C330.872 1756.2 331.948 1758.32 334.074 1759.54C336.199 1760.77 338.568 1760.64 339.365 1759.26C340.661 1757.97 342.182 1756.46 344.015 1756.01C346.972 1755.29 348.394 1758.94 347.865 1761.27C347.273 1763.88 345.028 1765.72 342.781 1766.94C339.154 1768.9 334.564 1770.36 331.251 1767.07C327.784 1763.64 327.088 1757.84 327.178 1753.22C327.297 1747.12 328.893 1739.78 332.247 1734.6C334.277 1731.46 337.27 1728.68 340.17 1726.36C342.249 1724.69 344.507 1723.23 346.933 1722.12C357.172 1717.44 368.579 1719.92 378.631 1723.82C390.368 1728.37 401.287 1734.8 412.808 1739.85C420.023 1743.01 427.707 1745.58 435.598 1746.24C439.656 1746.58 443.97 1746.53 447.923 1745.45C454.49 1743.67 460.074 1739.22 464.892 1734.58C472.875 1726.88 479.149 1717.67 486.909 1709.79C487.06 1709.5 486.827 1709.08 486.39 1708.85C486.171 1708.74 485.942 1708.69 485.749 1708.71Z" fill="#000000" stroke="none"/>
</g>
<g opacity="1">
<path d="M508.574 1624.39C507.91 1624.43 507.252 1624.51 506.598 1624.63C504.925 1624.94 503.287 1625.51 501.758 1626.26C499.265 1627.47 497.017 1629.12 495.032 1631.05C486.832 1639.02 481.732 1652.91 485.268 1664.13C487.988 1672.75 494.133 1679.46 500.909 1685.18C505.524 1689.08 510.451 1692.59 515.494 1695.9C522.176 1700.29 529.074 1704.5 535.029 1709.88C553.697 1726.75 558.948 1752 558.808 1776.16C558.785 1780.14 558.571 1784.07 557.772 1787.98C555.278 1800.17 548.305 1811.88 538.437 1819.53C530.514 1825.68 519.234 1829.55 510.142 1823.49C508.512 1822.41 507.065 1821.07 505.795 1819.59C503.763 1817.21 502.191 1814.46 500.961 1811.59C498.919 1806.83 497.809 1801.78 497.028 1796.67C496.864 1796.26 496.212 1796.12 495.57 1796.38C494.929 1796.63 494.538 1797.16 494.702 1797.58C495.498 1802.78 496.638 1807.93 498.719 1812.78C499.992 1815.75 501.619 1818.59 503.721 1821.06C505.062 1822.63 506.595 1824.03 508.315 1825.17C518.027 1831.64 530.014 1827.68 538.703 1821.42C549.645 1813.53 557.726 1801.66 561.238 1788.65C562.457 1784.13 562.949 1779.56 563.162 1774.9C564.313 1749.74 559.924 1723.42 541.502 1704.85C534.109 1697.4 525.019 1691.45 516.654 1685.15C509.344 1679.64 502.274 1673.48 498.006 1665.22C496.862 1663 495.89 1660.62 495.356 1658.18C494.294 1653.32 495.205 1648.07 497.093 1643.52C497.783 1641.86 498.624 1640.26 499.62 1638.76C500.275 1637.77 501.007 1636.82 501.829 1635.97C502.477 1635.29 503.189 1634.65 504.006 1634.19C504.202 1634.07 504.572 1633.92 504.576 1633.93C504.64 1634.06 504.859 1633.87 505.004 1633.86C505.306 1633.85 505.608 1633.9 505.898 1633.98C506.811 1634.24 507.614 1634.8 508.296 1635.45C510.655 1637.68 511.923 1640.89 512.935 1643.91C513.937 1645.95 517.293 1646.35 520.431 1644.81C523.57 1643.26 525.302 1640.36 524.299 1638.32C522.015 1631.86 518.158 1625.04 510.57 1624.41C509.906 1624.35 509.238 1624.35 508.574 1624.39Z" fill="#000000" stroke="none"/>
</g>
<g opacity="1">
<path d="M452.04 1735.34C450.68 1735.42 449.588 1736 449.22 1736.98C444.495 1742.67 440.534 1748.97 437.001 1755.45C432.015 1764.6 428.003 1774.15 425.185 1784.19C422.725 1792.95 421.032 1801.88 421.75 1811.02C422.242 1817.29 423.947 1823.63 427.739 1828.74C432.478 1835.12 439.876 1838.59 447.556 1839.96C451.43 1840.65 455.385 1840.75 459.223 1839.77C462.024 1839.06 464.649 1837.75 467.075 1836.2C470.557 1833.97 473.616 1831.07 475.959 1827.66C481.402 1819.74 483.104 1808.69 478.444 1800.01C477.638 1798.5 476.657 1797.1 475.516 1795.83C474.02 1794.17 472.255 1792.76 470.324 1791.64C467.684 1790.11 464.812 1789.17 461.83 1788.59C461.489 1788.36 460.928 1788.61 460.576 1789.13C460.225 1789.66 460.218 1790.27 460.56 1790.5C465.454 1791.45 470.079 1793.57 473.464 1797.32C478.979 1803.45 480.207 1812.72 477.336 1820.33C475.176 1826.06 471.047 1830.95 465.745 1834.01C463.834 1835.11 461.786 1836.06 459.613 1836.5C456.017 1837.22 452.37 1836.7 448.873 1835.73C446.099 1834.96 443.4 1833.87 440.942 1832.37C432.48 1827.18 429.335 1818.06 429.377 1808.52C429.4 1803.48 430.236 1798.53 431.412 1793.64C432.144 1790.6 432.919 1787.56 433.9 1784.59C435.203 1780.64 436.84 1776.8 438.516 1773C441.673 1765.85 445.262 1758.89 449.396 1752.24C451.997 1748.07 454.786 1743.99 458.002 1740.26C458.59 1738.68 457.102 1736.67 454.677 1735.77C453.767 1735.43 452.855 1735.29 452.04 1735.34Z" fill="#000000" stroke="none"/>
</g>
<g opacity="1">
<path d="M511.338 1669.57C511.192 1669.56 511.036 1669.58 510.876 1669.61C510.235 1669.74 509.789 1670.19 509.876 1670.61C509.243 1674.74 509.011 1678.88 509.358 1683.05C510.323 1694.65 515.359 1705.2 521.179 1715.09C525.733 1722.84 530.603 1730.38 535.196 1738.1C542.787 1750.86 549.645 1765.16 547.223 1780.41C544.72 1796.18 533.257 1810.62 519.068 1817.7C516.091 1819.18 512.909 1820.28 509.64 1820.9C507.384 1821.34 505.061 1821.53 502.769 1821.31C501.175 1821.15 499.602 1820.79 498.12 1820.17C488.886 1816.34 488.569 1804.76 489.898 1796.35C490.139 1794.82 490.46 1793.32 490.793 1791.81C490.439 1789.74 487.57 1788.51 484.39 1789.05C481.209 1789.59 478.92 1791.71 479.273 1793.78C476.948 1805.29 476.268 1820.62 488.079 1827.33C489.857 1828.34 491.786 1829.06 493.778 1829.52C496.663 1830.17 499.65 1830.3 502.593 1830.07C506.681 1829.74 510.687 1828.7 514.505 1827.23C532.843 1820.15 548.131 1803.86 552.521 1784.51C553.226 1781.39 553.608 1778.21 553.636 1775.02C553.765 1760.55 546.494 1747.61 538.614 1735.98C527.178 1719.1 512.814 1702.24 511.6 1680.92C511.394 1677.29 511.644 1673.7 512.193 1670.12C512.127 1669.81 511.779 1669.6 511.338 1669.57Z" fill="#000000" stroke="none"/>
</g>
<g opacity="1">
<path d="M494.711 1685.88C494.088 1685.94 493.616 1686.32 493.655 1686.72C492.017 1691.87 489.346 1696.65 486.674 1701.32C483.127 1707.52 479.323 1713.57 475.542 1719.62C468.858 1730.33 462.032 1740.97 455.683 1751.88C449.796 1761.99 444.256 1772.44 440.255 1783.46C435.437 1796.74 431.991 1813.27 441.875 1825.16C443.218 1826.77 444.818 1828.2 446.501 1829.45C449.518 1831.69 453.778 1834.28 457.578 1834.52C461.251 1834.75 464.966 1833.52 468.389 1832.33C474.759 1830.12 480.577 1826.52 484.929 1821.32C494.251 1810.18 494.129 1794.45 486.646 1782.39C482.936 1776.41 476.873 1770.89 469.366 1771.38C467.708 1771.49 466.078 1771.87 464.531 1772.48C462.803 1773.15 461.187 1774.08 459.723 1775.22C457.622 1776.85 455.866 1778.88 454.441 1781.12C452.439 1784.26 451.148 1787.75 450.099 1791.3C450.339 1793.34 453.077 1794.69 456.214 1794.32C459.351 1793.95 461.7 1791.99 461.459 1789.96C462.156 1787.45 462.948 1784.92 464.321 1782.69C464.536 1782.34 465.492 1780.9 465.815 1780.82C467.556 1780.37 470.169 1782.04 471.442 1783.03C475.284 1786.01 477.965 1790.44 479.689 1794.93C482.23 1801.54 482.965 1809.7 479.563 1816.16C476.864 1821.29 471.713 1824.45 466.425 1826.41C464.564 1827.1 462.47 1828.03 460.426 1827.85C459.047 1827.72 457.628 1826.96 456.386 1826.4C453.341 1825.01 450.389 1823.15 448.088 1820.7C437.258 1809.12 441.928 1791.01 446.79 1777.82C449.691 1769.95 453.315 1762.38 457.149 1754.93C463.036 1743.5 469.707 1732.51 476.514 1721.6C480.66 1714.96 484.847 1708.34 488.736 1701.54C491.488 1696.74 494.223 1691.81 495.912 1686.51C495.874 1686.1 495.334 1685.82 494.711 1685.88Z" fill="#000000" stroke="none"/>
</g>
<g opacity="1">
<path d="M488.769 1695.28C487.837 1695.28 486.829 1695.46 485.823 1695.83C482.604 1697 480.609 1699.64 481.369 1701.73C482.1 1706.54 482.903 1711.31 484.145 1716.02C485.371 1720.67 486.517 1725.33 487.684 1729.99C488.122 1731.74 488.699 1733.48 489.04 1735.25C489.626 1738.29 489.924 1741.43 490.37 1744.49C490.533 1744.91 491.185 1745.04 491.827 1744.8C492.469 1744.55 492.857 1744 492.694 1743.59C492.251 1740.55 491.557 1737.43 491.471 1734.36C491.4 1731.8 491.597 1729.19 491.737 1726.64C492.094 1720.12 492.792 1713.63 493.206 1707.13C493.409 1703.93 493.182 1700.7 493.028 1697.5C492.506 1696.06 490.819 1695.26 488.769 1695.28Z" fill="#000000" stroke="none"/>
</g>
<g opacity="1">
<path d="M506.343 1727.81C506.248 1727.81 506.151 1727.82 506.055 1727.83C496.884 1731.57 487.967 1738.32 484.725 1748.07C484.001 1750.25 483.661 1752.56 483.686 1754.85C483.705 1756.56 483.909 1758.29 484.556 1759.88C487.893 1768.08 498.286 1767.98 505.39 1765.5C514.07 1762.48 521.185 1754.99 524.511 1746.5C525.379 1744.29 526.021 1741.94 526.168 1739.55C526.252 1738.19 526.128 1736.85 525.878 1735.5C525.736 1734.74 525.471 1733.97 525.115 1733.28C522.225 1727.64 514.433 1728.83 509.475 1730.29C509.366 1730.33 509.259 1730.36 509.15 1730.4C508.577 1728.86 507.482 1727.82 506.343 1727.81ZM515.685 1731.03C519.68 1731 523.312 1732.67 523.697 1737.32C523.832 1738.96 523.494 1740.67 523.044 1742.23C520.974 1749.42 514.824 1756.93 507.841 1759.8C503.324 1761.66 496.033 1762.13 493.791 1756.73C493.379 1755.74 493.146 1754.64 493.06 1753.57C492.982 1752.6 493.089 1751.61 493.323 1750.66C495.038 1743.68 500.853 1738.81 507.347 1736.41C508.801 1736.19 509.734 1734.29 509.532 1732.09C510.982 1731.66 512.453 1731.32 513.959 1731.14C514.536 1731.07 515.115 1731.03 515.685 1731.03Z" fill="#000000" stroke="none"/>
</g>
<g opacity="1">
<path d="M509.04 1722.19C506.511 1722.18 503.934 1722.8 501.567 1723.66C495.137 1725.97 489.621 1730.5 485.955 1736.24C485.753 1737.6 486.841 1738.95 488.567 1739.71C485.485 1747 485.785 1755.41 491.703 1761.39C492.72 1762.42 493.841 1763.31 495.11 1764.01C496.683 1764.87 498.411 1765.44 500.179 1765.75C509.583 1767.4 520.323 1762.46 527.191 1756.28C529.52 1754.18 531.627 1751.75 533.074 1748.96C533.701 1747.74 534.21 1746.46 534.448 1745.11C535.476 1739.3 531.258 1733.82 526.945 1730.45C525.519 1729.33 523.957 1728.36 522.429 1727.39C520.978 1726.47 519.51 1725.58 517.968 1724.83C515.265 1723.5 512.1 1722.21 509.04 1722.19ZM505.058 1731.18C505.086 1731.18 505.119 1731.19 505.151 1731.19C505.108 1731.19 505.074 1731.19 505.036 1731.19C505.028 1731.19 505.05 1731.18 505.058 1731.18ZM505.198 1731.19C505.304 1731.2 505.415 1731.2 505.504 1731.21C505.764 1731.24 506 1731.28 506.258 1731.33C507.174 1731.51 508.073 1731.76 508.963 1732.03C512.728 1733.2 516.283 1734.74 519.563 1736.95C522.692 1739.05 527.834 1742.71 527.206 1747.17C526.995 1748.67 526.212 1750.11 525.38 1751.35C524.067 1753.3 522.377 1755.01 520.545 1756.48C514.777 1761.12 506.376 1764.65 498.925 1762.56C497.348 1762.12 495.854 1761.41 494.532 1760.44C493.072 1759.37 491.934 1757.96 491.037 1756.4C488.216 1751.48 488.497 1745.46 490.521 1740.27C493.295 1740.68 495.758 1739.55 496.028 1737.75C498.176 1734.12 501.115 1732.05 505.198 1731.19Z" fill="#000000" stroke="none"/>
</g>
<g opacity="1">
<path d="M496.785 1528.35C495.697 1528.31 494.487 1528.52 493.284 1528.99C490.078 1530.27 488.152 1532.98 488.98 1535.07C493.234 1559.59 496.621 1584.26 502.052 1608.56C502.864 1612.19 503.734 1615.81 504.622 1619.43C504.991 1620.93 505.295 1622.46 505.777 1623.94C507.537 1629.33 509.437 1634.67 511.023 1640.12C511.762 1642.66 512.542 1645.26 512.885 1647.89C513.13 1649.77 512.296 1651.56 511.547 1653.24C510.572 1655.43 509.419 1657.55 508.331 1659.68C505.162 1665.9 501.536 1673.58 504.673 1680.52C505.366 1682.05 506.346 1683.48 507.446 1684.75C509.444 1687.05 512.106 1688.99 515.16 1689.54C520.835 1690.55 525.864 1686.38 526.553 1680.79C527.42 1673.76 522.934 1667.11 518.569 1662.04C518.305 1661.67 517.63 1661.7 517.058 1662.11C516.486 1662.51 516.234 1663.15 516.498 1663.52C520.576 1668.25 525.026 1674.77 524.223 1681.32C524.105 1682.28 523.854 1683.24 523.439 1684.11C523.099 1684.83 522.649 1685.49 522.085 1686.04C518.255 1689.84 512.387 1686.73 509.695 1683.18C508.751 1681.94 507.921 1680.57 507.369 1679.1C504.532 1671.58 509.967 1663.53 513.577 1657.3C515.486 1654 518.135 1650.1 517.882 1646.09C517.572 1641.18 516.206 1636.26 515.058 1631.5C514.155 1627.75 512.997 1624.03 512.239 1620.25C511.623 1617.17 511.189 1614.04 510.743 1610.94C509.847 1604.71 509.113 1598.47 508.331 1592.23C507.942 1589.12 507.458 1586.02 507.105 1582.9C506.322 1576 505.699 1569.08 504.871 1562.19C503.599 1551.59 502.165 1541.02 500.586 1530.46C500.069 1529.16 498.599 1528.41 496.785 1528.35Z" fill="#000000" stroke="none"/>
</g>
<path d="M514.285 1643.28" fill="none" opacity="1" stroke="#000000" stroke-linecap="butt" stroke-linejoin="round" stroke-width="14"/>
<g opacity="1">
<path d="M504.467 1752.18C484.442 1752.47 464.621 1755.14 444.922 1758.62C431.111 1761.06 417.392 1764 403.552 1766.26C373.406 1771.19 343.434 1777.43 313.602 1783.98C283.674 1790.56 253.946 1797.91 224.313 1805.7C214.944 1808.16 205.548 1810.52 196.194 1813.04C182.65 1816.68 169.165 1820.49 155.691 1824.39C155.365 1824.38 155.079 1824.78 155.065 1825.28C155.051 1825.78 155.31 1826.2 155.636 1826.21C178.374 1819.64 201.181 1813.23 224.159 1807.54C240.332 1803.54 256.628 1799.97 272.924 1796.51C298.614 1791.05 324.404 1786.09 350.303 1781.73C365.289 1779.21 380.315 1776.99 395.354 1774.81C407.457 1773.06 419.556 1771.18 431.626 1769.22C454.384 1765.52 477.159 1761.98 500.27 1761.89C502.011 1762.64 504.365 1761.08 505.522 1758.4C506.679 1755.72 506.209 1752.94 504.467 1752.18Z" fill="#000000" stroke="none"/>
</g>
<g opacity="1">
<path d="M389.418 941.149C388.083 941.148 386.982 941.656 386.567 942.599C377.843 952.483 369.108 962.378 360.245 972.135C356.891 975.828 353.676 979.652 350.366 983.386C344.624 989.865 338.824 996.294 333.034 1002.73C327.543 1008.83 322.229 1015.11 316.658 1021.14C310.719 1027.57 304.814 1034.03 298.922 1040.5C298.788 1040.81 299.056 1041.22 299.518 1041.42C299.981 1041.63 300.466 1041.55 300.6 1041.25C306.471 1034.8 312.212 1028.2 318.289 1021.94C321.528 1018.6 324.895 1015.38 328.208 1012.12C340.51 1000.01 353.174 988.281 365.591 976.292C375.668 966.564 385.445 956.565 394.976 946.299C395.64 944.79 394.295 942.738 391.973 941.716C391.102 941.333 390.219 941.149 389.418 941.149Z" fill="#000000" stroke="none"/>
</g>
<g opacity="1">
<path d="M417.887 934.712C416.908 934.876 416.134 935.357 415.805 936.114C400.784 952.943 385.731 969.744 370.809 986.661C341.855 1019.48 313.267 1052.64 284.883 1085.96C268.756 1104.89 252.926 1124.05 236.984 1143.13C222.471 1160.5 208.007 1177.91 193.767 1195.51C193.659 1195.83 193.975 1196.23 194.472 1196.4C194.969 1196.57 195.455 1196.44 195.563 1196.11C210.157 1178.07 224.774 1160.02 239.903 1142.43C251.188 1129.3 262.695 1116.36 274.224 1103.45C291.713 1083.86 309.365 1064.42 327.182 1045.13C336.101 1035.47 345.12 1025.91 354.025 1016.24C377.468 990.79 400.948 965.379 424.242 939.787C424.901 938.273 423.545 936.218 421.216 935.204C420.052 934.697 418.866 934.548 417.887 934.712Z" fill="#000000" stroke="none"/>
</g>
<g opacity="1">
<path d="M361.293 1293.72C361.109 1293.7 360.947 1293.75 360.85 1293.87C352.207 1301.13 343.602 1308.42 335.098 1315.84C329.772 1320.49 324.534 1325.24 319.205 1329.89C278.698 1365.2 239.548 1402.17 202.09 1440.71C188.907 1454.27 176.1 1468.2 163.359 1482.18C162.701 1483.69 164.055 1485.74 166.385 1486.76C168.716 1487.77 171.144 1487.36 171.802 1485.84C210.365 1442.48 249.498 1399.56 291.058 1359.03C300.794 1349.53 310.595 1340.07 320.641 1330.9C334.165 1318.56 348.163 1306.71 362.186 1294.94C362.379 1294.7 362.235 1294.27 361.867 1293.98C361.684 1293.83 361.477 1293.74 361.293 1293.72Z" fill="#000000" stroke="none"/>
</g>
<g opacity="1">
<path d="M296.138 1373.92C295.945 1373.94 295.787 1374.02 295.712 1374.16C287.114 1382.98 278.579 1391.87 269.944 1400.65C262.583 1408.14 254.994 1415.4 247.539 1422.8C234.628 1435.6 221.813 1448.51 208.94 1461.35C204.57 1465.71 200.4 1470.27 195.989 1474.59C184.258 1486.07 171.957 1497.86 166.311 1513.69C166.464 1515.7 169.093 1517.14 172.187 1516.91C175.281 1516.67 177.668 1514.85 177.516 1512.84C181.127 1501.97 188.753 1493.29 196.356 1484.98C201.682 1479.16 206.996 1473.31 212.151 1467.34C224.41 1453.15 236.971 1439.22 249.595 1425.35C256.869 1417.36 264.084 1409.29 271.547 1401.47C280.049 1392.57 288.712 1383.81 297.307 1375C297.456 1374.71 297.223 1374.29 296.783 1374.06C296.562 1373.95 296.331 1373.9 296.138 1373.92Z" fill="#000000" stroke="none"/>
</g>
<g opacity="1">
<path d="M472.296 767.12C470.179 767.043 468.052 768.343 466.377 769.45C461.572 772.627 457.912 777.326 454.987 782.217C454.006 783.859 453.094 785.548 452.248 787.263C448.68 794.498 445.934 802.504 444.015 810.664C431.94 826.706 420.295 843.241 405.556 856.986C394.647 867.16 381.871 875.547 366.909 877.931C365.2 877.551 363.345 879.379 362.76 882.009C362.176 884.638 363.082 887.075 364.791 887.455C398.476 881.831 421.889 854.207 441.276 827.91C441.221 828.588 441.137 829.274 441.095 829.948C440.762 835.281 440.779 840.821 442.118 846.029C443.345 850.801 445.86 855.59 449.045 859.347C450.544 861.116 452.285 862.691 454.255 863.92C455.172 864.493 456.122 864.95 457.081 865.345C454.679 868.706 452.501 872.211 450.54 875.704C442.898 889.316 437.412 904.103 432.657 918.932C426.85 937.043 422.139 955.45 417.363 973.85C415.981 979.175 414.546 984.435 413.664 989.876C412.407 997.622 411.575 1005.92 408.138 1013.09C408.544 1011.08 408.985 1009.07 409.271 1007.03C409.181 1006.62 408.583 1006.4 407.941 1006.54C407.3 1006.68 406.851 1007.13 406.942 1007.55C406.53 1010.48 405.729 1013.33 405.312 1016.26C405.208 1016.99 404.895 1018.55 406.131 1018.5C407.52 1018.45 408.3 1016.82 408.886 1015.83C409.165 1015.37 409.434 1014.89 409.689 1014.4C409.94 1013.92 410.176 1013.44 410.405 1012.95C413.39 1006.57 414.395 999.5 415.474 992.607C415.971 989.43 416.461 986.255 417.158 983.114C417.872 979.898 418.818 976.724 419.646 973.535C420.929 968.59 422.185 963.634 423.471 958.69C428.215 940.455 433.386 922.359 440.237 904.788C444.083 894.925 448.426 885.193 453.799 876.058C455.76 872.723 457.878 869.444 460.206 866.329C467.916 868.04 476.34 865.03 482.623 860.308C483.405 859.72 484.273 859.003 485 858.348C485.73 857.691 486.393 857.04 487.055 856.317C487.667 855.648 488.214 854.987 488.747 854.255C490.317 852.097 492.692 847.651 489.4 845.801C486.357 844.09 481.042 845.936 478.145 847.123C477.338 847.454 476.435 847.872 475.657 848.265C469.824 851.214 464.923 855.609 460.702 860.638C453.184 856.954 448.684 847.122 447.935 839.347C447.341 833.186 447.975 826.909 448.982 820.826C449.246 819.226 449.589 817.633 449.918 816.04C451.897 813.282 453.872 810.525 455.861 807.775C459.693 802.478 463.654 797.295 467.361 791.907C469.121 789.348 470.919 786.795 472.241 783.973C473.119 782.099 473.768 780.093 474.374 778.116C474.7 777.055 474.91 776.358 475.177 775.275C475.835 772.607 476.93 768.135 473.201 767.246C472.901 767.175 472.599 767.131 472.296 767.12ZM465.44 778.974C464.677 781.433 463.823 783.865 462.449 786.058C460.68 788.883 458.713 791.576 456.696 794.237C456.927 793.695 457.125 793.137 457.365 792.599C459.506 787.802 462.061 783.032 465.44 778.974ZM484.41 849.138C485.337 849.131 486.157 849.363 486.11 850.232C485.98 852.671 482.662 855.522 480.994 856.844C476.301 860.566 469.945 863.119 463.906 861.756C464.957 860.564 466.046 859.407 467.188 858.3C471.046 854.563 475.531 851.39 480.718 849.831C481.106 849.715 481.628 849.584 482.025 849.493C482.44 849.397 483.483 849.146 484.41 849.138Z" fill="#000000" stroke="none"/>
</g>
<g opacity="1">
<path d="M399.974 875.347C398.393 875.356 396.521 876.552 395.25 878.531C393.554 881.17 393.57 884.201 395.285 885.303C399.186 885.912 402.985 886.847 406.548 888.592C413.849 892.167 418.867 898.863 421.469 906.461C422.379 909.118 422.83 911.889 423.267 914.654C423.822 918.172 424.134 921.701 424.194 925.262C424.377 936.16 422.679 947.06 420.467 957.701C418.559 966.883 416.352 976.072 413.661 985.058C410.77 994.71 407.288 1004.18 404.794 1013.95C404.852 1014.36 405.414 1014.62 406.045 1014.54C406.677 1014.45 407.14 1014.04 407.082 1013.63C408.621 1007.6 410.532 1001.67 412.427 995.749C417.894 978.666 424.235 961.854 428.354 944.368C430.264 936.259 431.729 927.988 432.182 919.658C432.857 907.22 430.816 893.273 421.075 884.52C419.166 882.804 417.044 881.329 414.785 880.111C410.61 877.859 406.066 876.604 401.426 875.749C400.997 875.474 400.501 875.344 399.974 875.347Z" fill="#000000" stroke="none"/>
</g>
<g opacity="1">
<path d="M443.089 841.457C441.036 841.42 439.345 842.295 439.033 843.704C436.795 847.165 434.196 850.383 431.968 853.853C427.329 861.077 422.82 868.458 418.769 876.034C418.335 876.846 417.836 877.807 417.426 878.634C416.951 879.594 416.755 880.024 416.322 880.987C416.086 881.515 415.863 882.048 415.654 882.587C415.021 884.222 413.456 888.271 416.669 888.124C417.134 888.103 417.589 887.996 418.032 887.859C418.561 887.694 419.073 887.48 419.575 887.245C420.423 886.848 421.24 886.391 422.043 885.911C423.385 885.107 424.68 884.23 425.966 883.34C426.198 883.151 426.152 882.709 425.862 882.352C425.573 881.995 425.15 881.859 424.918 882.047C423.911 882.744 422.9 883.434 421.86 884.082C421.27 884.45 420.67 884.806 420.058 885.137C419.608 885.381 419.15 885.612 418.679 885.812C417.262 886.414 416.559 886.377 417.283 884.609C417.769 883.423 418.455 882.305 419.162 881.241C419.397 880.887 419.631 880.533 419.872 880.184C420.13 879.81 420.393 879.44 420.659 879.071C420.943 878.677 421.232 878.286 421.522 877.897C421.828 877.487 422.136 877.077 422.447 876.672C423.074 875.854 423.827 874.896 424.471 874.095C428.702 868.833 433.279 863.866 437.751 858.814C441.498 854.579 445.336 850.408 448.688 845.841C449.072 844.107 447.222 842.225 444.556 841.634C444.056 841.524 443.563 841.466 443.089 841.457Z" fill="#000000" stroke="none"/>
</g>
<g opacity="1">
<path d="M460.328 843.61C458.252 843.626 456.566 844.555 456.288 845.986C453.206 850.929 450.258 855.92 447.49 861.042C446.584 862.716 445.792 864.457 444.922 866.15C442.821 870.24 440.604 874.269 438.44 878.326C437.356 880.359 436.34 882.438 435.202 884.443C433.255 887.873 430.925 891.127 428.784 894.438C428.721 894.795 429.115 895.16 429.663 895.256C430.211 895.352 430.705 895.14 430.768 894.784C432.916 891.462 434.941 888.002 437.269 884.803C442.868 877.11 449.139 869.933 455.084 862.516C458.907 857.747 462.554 852.87 466.103 847.891C466.445 846.129 464.526 844.276 461.815 843.75C461.307 843.651 460.807 843.606 460.328 843.61Z" fill="#000000" stroke="none"/>
</g>
<g opacity="1">
<path d="M459.522 866.319C457.167 866.316 455.248 867.414 455.033 869.009C451.405 875.391 447.881 881.813 444.536 888.346C439.452 898.275 434.835 908.453 429.632 918.323C427.31 922.729 424.699 927.01 422.242 931.343C422.204 931.714 422.635 932.062 423.206 932.121C423.777 932.179 424.27 931.925 424.308 931.554C426.759 927.23 429.051 922.752 431.758 918.582C439.638 906.438 448.491 894.945 456.839 883.131C459.771 878.982 462.464 874.659 465.192 870.374C465.437 868.551 463.361 866.766 460.556 866.389C460.206 866.342 459.859 866.32 459.522 866.319Z" fill="#000000" stroke="none"/>
</g>
<g opacity="1">
<path d="M538.918 984.818C536.931 984.693 535.024 985.722 533.178 986.468C532.688 986.666 532.416 987.203 532.056 987.59C531.292 988.413 530.801 989.856 530.387 990.805C530.234 991.155 530.062 991.555 529.913 991.905C529.718 992.364 529.562 992.732 529.372 993.196C529.066 993.943 528.768 994.694 528.476 995.447C528.144 996.302 527.821 997.161 527.509 998.023C526.874 999.776 526.264 1001.54 525.703 1003.31C525.385 1004.05 525.081 1004.8 524.752 1005.54C522.127 1011.4 519.206 1017.2 515.582 1022.53C511.484 1021.57 506.532 1023.66 503.003 1025.57C502.168 1026.02 501.22 1026.57 500.412 1027.07C499.222 1027.8 498.055 1028.57 496.908 1029.37C496.376 1029.74 495.854 1030.12 495.331 1030.5C493.507 1029.1 491.305 1028.89 490.361 1030.07C489.54 1030.79 488.791 1031.55 488.215 1032.49C487.823 1033.13 487.554 1033.75 487.385 1034.48C486.587 1037.91 489.865 1039.94 492.587 1041.02C495.837 1042.32 499.646 1043.06 503.124 1042.41C504.839 1042.09 506.502 1041.42 508.069 1040.67C512.675 1038.45 516.553 1035.02 519.872 1031.15C520.617 1033.88 520.811 1036.89 520.886 1039.18C520.92 1040.21 520.933 1041.25 520.921 1042.29C520.904 1043.76 520.829 1045.22 520.752 1046.69C520.653 1048.58 520.509 1050.47 520.355 1052.37C520.168 1054.67 519.93 1056.96 519.693 1059.26C519.39 1062.2 519.024 1065.14 518.714 1068.08C518.573 1069.42 518.443 1070.77 518.339 1072.12C518.267 1073.05 518.206 1073.97 518.167 1074.9C518.132 1075.75 518.114 1076.6 518.123 1077.44C518.154 1080.44 518.574 1086.44 523.124 1085.49C528.09 1084.44 525.604 1078.41 525.013 1075.26C524.889 1074.6 524.779 1073.93 524.775 1073.26C524.75 1069.83 525.54 1066.05 526.205 1062.69C527.564 1055.84 529.666 1049.15 532.291 1042.68C533.111 1040.66 533.959 1038.62 534.905 1036.62C541.345 1037.14 548.183 1032.81 552.527 1028.64C553.472 1027.73 554.373 1026.77 555.217 1025.77C557.159 1023.46 560.515 1019.07 559.786 1015.73C559.103 1012.59 555.139 1013.12 552.876 1013.87C546.345 1016.03 541.104 1020.93 536.733 1026.06C536.109 1026.8 535.488 1027.53 534.892 1028.29C534.554 1027.96 534.234 1027.62 533.948 1027.24C530.98 1023.38 531.059 1018.57 531.763 1013.96C531.912 1012.99 532.091 1012.02 532.288 1011.06C533.776 1007.86 535.14 1004.62 536.409 1001.36C537.742 997.929 538.972 994.459 540.072 990.951C540.194 990.563 540.256 990.354 540.361 990.004C540.559 989.345 540.929 988.491 540.972 987.762C540.988 987.493 541.132 987.178 540.978 986.957C540.412 986.145 539.906 984.88 538.918 984.818ZM553.242 1018.66C553.245 1018.69 553.25 1018.73 553.245 1018.75C553.208 1018.92 553.154 1019.09 553.093 1019.25C552.932 1019.68 552.724 1020.09 552.495 1020.48C551.659 1021.92 550.583 1023.22 549.43 1024.41C546.952 1026.97 542.733 1030.41 538.8 1030.12C539.724 1028.97 540.727 1027.88 541.738 1026.8C543.145 1025.3 544.615 1023.85 546.221 1022.56C547.966 1021.17 549.883 1019.99 551.951 1019.14C552.271 1019.01 552.79 1018.75 553.242 1018.66ZM512.631 1024.21C513.217 1024.22 513.755 1024.29 514.259 1024.41C512.296 1027.1 510.09 1029.76 507.375 1031.72C506.805 1032.13 506.201 1032.5 505.563 1032.8C505.402 1032.87 505.198 1032.96 505.032 1033.02C505.011 1033.03 504.99 1033.04 504.968 1033.05C504.651 1032.95 503.502 1032.92 503.204 1032.86C501.722 1032.57 499.708 1032.09 498.625 1030.94C498.554 1030.87 498.76 1031.11 498.8 1031.2C498.825 1031.26 498.85 1031.32 498.867 1031.39C498.97 1031.78 498.965 1032.2 498.87 1032.6C498.597 1033.74 497.878 1034.64 497.038 1035.43C497.781 1034.51 497.52 1033.01 496.52 1031.69C498.819 1030.02 501.187 1028.44 503.687 1027.09C505.572 1026.07 507.554 1025.15 509.636 1024.61C510.61 1024.36 511.623 1024.2 512.631 1024.21ZM523.42 1026.56C523.999 1028.4 524.877 1030.16 526.135 1031.77C527.163 1033.08 528.403 1034.24 529.849 1035.08C530.099 1035.22 530.352 1035.36 530.606 1035.48C529.496 1037.9 528.556 1040.42 527.649 1042.89C525.2 1049.56 523.301 1056.45 522.174 1063.47C521.697 1066.43 521.342 1069.41 521.182 1072.41C521.135 1073.28 521.071 1074.14 521.169 1075.01C521.394 1077 522.086 1078.92 522.555 1080.87C522.699 1081.47 522.822 1082.08 522.854 1082.69C522.829 1082.68 522.799 1082.67 522.775 1082.65C522.424 1082.41 522.171 1082.04 521.983 1081.66C521.413 1080.53 521.23 1079.2 521.108 1077.96C520.702 1073.78 521.09 1069.51 521.417 1065.34C522.009 1057.79 523.047 1050.27 523.232 1042.69C523.345 1038.1 523.303 1033.2 521.757 1028.82C522.067 1028.42 522.383 1028.02 522.682 1027.61C522.937 1027.27 523.171 1026.91 523.42 1026.56Z" fill="#000000" stroke="none"/>
</g>
</g>
</svg>
